<svg width="1000" height="1000" viewBox="0 0 1002 999" fill="none" xmlns="http://www.w3.org/2000/svg">
    <path d="M1000 0H0V1000H1000V0Z" fill="url(#paint0_radial_6_4506)"/>
    <defs>
        <radialGradient id="paint0_radial_6_4506" cx="0" cy="0" r="1" gradientUnits="userSpaceOnUse" gradientTransform="translate(808.931 120.117) rotate(68.4169) scale(905.702 844.001)">
            <stop stop-color="#1A000E"/>
            <stop offset="0.5056" stop-color="#540048"/>
            <stop offset="1" stop-color="#000027"/>
        </radialGradient>
    </defs>
    <g opacity="0.2">
        <path d="M277.224 1V588.96L1 699.247" stroke="#C5BCFF" stroke-linecap="round" stroke-linejoin="round"/>
        <path d="M321.963 1V588.96L1 749.136" stroke="#C5BCFF" stroke-linecap="round" stroke-linejoin="round"/>
        <path d="M366.701 1V588.96L1 832.26" stroke="#C5BCFF" stroke-linecap="round" stroke-linejoin="round"/>
        <path d="M411.445 1V588.96L1.21509 998.228" stroke="#C5BCFF" stroke-linecap="round" stroke-linejoin="round"/>
        <path d="M456.179 1V588.96L250.888 998.228" stroke="#C5BCFF" stroke-linecap="round" stroke-linejoin="round"/>
        <path d="M500.92 1V588.96L500.57 998.228" stroke="#C5BCFF" stroke-linecap="round" stroke-linejoin="round"/>
        <path d="M545.66 1V588.96L750.244 998.228" stroke="#C5BCFF" stroke-linecap="round" stroke-linejoin="round"/>
        <path d="M590.398 1V588.96L999.921 998.228" stroke="#C5BCFF" stroke-linecap="round" stroke-linejoin="round"/>
        <path d="M635.142 1V588.96L1001 832.642" stroke="#C5BCFF" stroke-linecap="round" stroke-linejoin="round"/>
        <path d="M679.881 1V588.96L1001 749.349" stroke="#C5BCFF" stroke-linecap="round" stroke-linejoin="round"/>
        <path d="M724.617 1V588.96L1001 699.386" stroke="#C5BCFF" stroke-linecap="round" stroke-linejoin="round"/>
        <path d="M769.36 1V588.96L1001 666.08" stroke="#C5BCFF" stroke-linecap="round" stroke-linejoin="round"/>
        <path d="M814.096 1V588.96L1001 642.294" stroke="#C5BCFF" stroke-linecap="round" stroke-linejoin="round"/>
        <path d="M858.836 1V588.96L1001 624.455" stroke="#C5BCFF" stroke-linecap="round" stroke-linejoin="round"/>
        <path d="M903.579 1V588.96L1001 610.58" stroke="#C5BCFF" stroke-linecap="round" stroke-linejoin="round"/>
        <path d="M948.315 1V588.96L1001 599.484" stroke="#C5BCFF" stroke-linecap="round" stroke-linejoin="round"/>
        <path d="M993.052 1V588.96L1001 590.4" stroke="#C5BCFF" stroke-linecap="round" stroke-linejoin="round"/>
        <path d="M1 642.222L187.745 588.96V1" stroke="#C5BCFF" stroke-linecap="round" stroke-linejoin="round"/>
        <path d="M232.483 1V588.96L1 665.984" stroke="#C5BCFF" stroke-linecap="round" stroke-linejoin="round"/>
        <path d="M143.008 1V588.96L1 624.403" stroke="#C5BCFF" stroke-linecap="round" stroke-linejoin="round"/>
        <path d="M98.2656 1V588.96L1.00171 610.536" stroke="#C5BCFF" stroke-linecap="round" stroke-linejoin="round"/>
        <path d="M53.5272 1V588.96L1 599.445" stroke="#C5BCFF" stroke-linecap="round" stroke-linejoin="round"/>
        <path d="M8.7844 1V588.96L1 590.373" stroke="#C5BCFF" stroke-linecap="round" stroke-linejoin="round"/>
        <path d="M1 544.346H1001" stroke="#C5BCFF" stroke-linecap="round" stroke-linejoin="round"/>
        <path d="M1 499.727H1001" stroke="#C5BCFF" stroke-linecap="round" stroke-linejoin="round"/>
        <path d="M1 455.114H1001" stroke="#C5BCFF" stroke-linecap="round" stroke-linejoin="round"/>
        <path d="M1 410.501H1001" stroke="#C5BCFF" stroke-linecap="round" stroke-linejoin="round"/>
        <path d="M1 365.881H1001" stroke="#C5BCFF" stroke-linecap="round" stroke-linejoin="round"/>
        <path d="M1 321.267H1001" stroke="#C5BCFF" stroke-linecap="round" stroke-linejoin="round"/>
        <path d="M1 276.654H1001" stroke="#C5BCFF" stroke-linecap="round" stroke-linejoin="round"/>
        <path d="M1 232.035H1001" stroke="#C5BCFF" stroke-linecap="round" stroke-linejoin="round"/>
        <path d="M1 187.421H1001" stroke="#C5BCFF" stroke-linecap="round" stroke-linejoin="round"/>
        <path d="M1 142.807H1001" stroke="#C5BCFF" stroke-linecap="round" stroke-linejoin="round"/>
        <path d="M1 98.1881H1001" stroke="#C5BCFF" stroke-linecap="round" stroke-linejoin="round"/>
        <path d="M1 53.5748H1001" stroke="#C5BCFF" stroke-linecap="round" stroke-linejoin="round"/>
        <path d="M1 8.95668H1001" stroke="#C5BCFF" stroke-linecap="round" stroke-linejoin="round"/>
        <path d="M1001 785.249H1" stroke="#C5BCFF" stroke-linecap="round" stroke-linejoin="round"/>
        <path d="M1001 750.762H1" stroke="#C5BCFF" stroke-linecap="round" stroke-linejoin="round"/>
        <path d="M1001 723.71H1" stroke="#C5BCFF" stroke-linecap="round" stroke-linejoin="round"/>
        <path d="M1001 830.708H1" stroke="#C5BCFF" stroke-linecap="round" stroke-linejoin="round"/>
        <path d="M1001 701.917H1" stroke="#C5BCFF" stroke-linecap="round" stroke-linejoin="round"/>
        <path d="M1001 683.987H1" stroke="#C5BCFF" stroke-linecap="round" stroke-linejoin="round"/>
        <path d="M1001 592.969H1" stroke="#C5BCFF" stroke-linecap="round" stroke-linejoin="round"/>
        <path d="M1001 588.96H1" stroke="#C5BCFF" stroke-linecap="round" stroke-linejoin="round"/>
        <path d="M1001 602.173H1" stroke="#C5BCFF" stroke-linecap="round" stroke-linejoin="round"/>
        <path d="M1001 597.356H1" stroke="#C5BCFF" stroke-linecap="round" stroke-linejoin="round"/>
        <path d="M1001 645.258H1" stroke="#C5BCFF" stroke-linecap="round" stroke-linejoin="round"/>
        <path d="M1001 668.973H1" stroke="#C5BCFF" stroke-linecap="round" stroke-linejoin="round"/>
        <path d="M1001 893.382H1" stroke="#C5BCFF" stroke-linecap="round" stroke-linejoin="round"/>
        <path d="M1001 613.395H1" stroke="#C5BCFF" stroke-linecap="round" stroke-linejoin="round"/>
        <path d="M1001 607.494H1" stroke="#C5BCFF" stroke-linecap="round" stroke-linejoin="round"/>
        <path d="M1001 635.731H1" stroke="#C5BCFF" stroke-linecap="round" stroke-linejoin="round"/>
        <path d="M1001 627.368H1" stroke="#C5BCFF" stroke-linecap="round" stroke-linejoin="round"/>
        <path d="M1001 619.977H1" stroke="#C5BCFF" stroke-linecap="round" stroke-linejoin="round"/>
        <path d="M1001 656.223H1" stroke="#C5BCFF" stroke-linecap="round" stroke-linejoin="round"/>
        <path d="M999.924 998.227H1.21582" stroke="#C5BCFF" stroke-linecap="round" stroke-linejoin="round"/>
    </g>
    <g opacity="0.6">
        <path opacity="0.7" d="M162.211 266.454C162.211 267.632 161.769 268.221 160.886 268.221C160.003 268.221 159.562 267.632 159.562 266.454C159.562 265.276 160.003 264.688 160.886 264.688C161.328 264.688 162.211 265.276 162.211 266.454Z" fill="white"/>
        <path opacity="0.7" d="M216.519 266.455C216.519 267.044 216.077 267.633 215.636 267.633C215.194 267.633 214.752 267.044 214.752 266.455C214.752 265.866 215.194 265.277 215.636 265.277C216.077 264.688 216.519 265.277 216.519 266.455Z" fill="white"/>
        <path opacity="0.7" d="M109.228 361.282C109.228 361.871 108.787 362.46 108.345 362.46C107.904 362.46 107.462 361.871 107.462 361.282C107.462 360.693 107.904 360.104 108.345 360.104C108.787 360.104 109.228 360.693 109.228 361.282Z" fill="white"/>
        <path opacity="0.7" d="M721.189 289.425C721.189 290.014 720.748 290.603 720.306 290.603C719.865 290.603 719.423 290.014 719.423 289.425C719.423 288.836 719.865 288.247 720.306 288.247C720.748 288.247 721.189 288.836 721.189 289.425Z" fill="white"/>
        <path opacity="0.7" d="M228.001 196.364C228.001 196.953 227.559 197.542 227.118 197.542C226.676 197.542 226.235 196.953 226.235 196.364C226.235 195.776 226.676 195.187 227.118 195.187C227.559 195.187 228.001 195.776 228.001 196.364Z" fill="white"/>
        <path opacity="0.7" d="M226.233 235.826C226.233 236.415 225.791 237.004 225.35 237.004C224.908 237.004 224.467 236.415 224.467 235.826C224.467 235.237 224.908 234.648 225.35 234.648C225.791 234.648 226.233 235.237 226.233 235.826Z" fill="white"/>
        <path opacity="0.7" d="M266.413 30.2689C266.413 31.4469 265.972 32.0359 265.089 32.0359C264.206 32.0359 263.764 31.4469 263.764 30.2689C263.764 29.0909 264.206 28.502 265.089 28.502C265.972 28.502 266.413 29.6799 266.413 30.2689Z" fill="white"/>
        <path opacity="0.7" d="M271.268 307.684C271.268 308.862 270.385 310.04 269.502 310.04C268.619 310.04 267.736 308.862 267.736 307.684C267.736 306.506 268.619 305.328 269.502 305.328C270.827 305.328 271.268 306.506 271.268 307.684Z" fill="white"/>
        <path opacity="0.7" d="M193.121 12.6001C193.121 13.7781 192.238 14.9561 191.355 14.9561C190.472 14.9561 189.589 13.7781 189.589 12.6001C189.589 11.4221 190.472 10.2441 191.355 10.2441C192.238 10.2441 193.121 10.8331 193.121 12.6001Z" fill="white"/>
        <path opacity="0.7" d="M46.532 208.145C46.532 209.323 45.6489 210.501 44.7659 210.501C43.8828 210.501 42.9998 209.323 42.9998 208.145C42.9998 206.967 43.8828 205.789 44.7659 205.789C45.6489 205.789 46.532 206.967 46.532 208.145Z" fill="white"/>
        <path opacity="0.7" d="M21.364 393.677C21.364 394.855 20.481 396.033 19.5979 396.033C18.7148 396.033 17.8318 394.855 17.8318 393.677C17.8318 392.499 18.7148 391.321 19.5979 391.321C20.9225 391.321 21.364 392.499 21.364 393.677Z" fill="white"/>
        <path opacity="0.7" d="M107.462 221.102C107.462 222.28 106.579 223.458 105.696 223.458C104.813 223.458 103.93 222.28 103.93 221.102C103.93 219.924 104.813 218.746 105.696 218.746C106.579 218.746 107.462 219.924 107.462 221.102Z" fill="white"/>
        <path opacity="0.7" d="M68.6086 379.54C68.6086 380.718 68.1671 381.307 67.2841 381.307C66.401 381.307 65.9595 380.718 65.9595 379.54C65.9595 378.362 66.401 377.773 67.2841 377.773C68.1671 377.773 68.6086 378.362 68.6086 379.54Z" fill="white"/>
        <path opacity="0.7" d="M92.0098 143.945C92.0098 145.123 91.5682 145.712 90.6852 145.712C89.8021 145.712 89.3606 145.123 89.3606 143.945C89.3606 142.767 89.8021 142.178 90.6852 142.178C91.5682 142.178 92.0098 143.356 92.0098 143.945Z" fill="white"/>
        <path opacity="0.7" d="M46.9736 1.40905C46.9736 1.99804 46.5321 2.58703 46.0906 2.58703C45.649 2.58703 45.2075 1.99804 45.2075 1.40905C45.2075 0.82006 45.649 0.231064 46.0906 0.231064C46.5321 -0.357928 46.9736 0.231068 46.9736 1.40905Z" fill="white"/>
        <path opacity="0.7" d="M564.002 97.4143C564.002 98.0033 563.561 98.5923 563.119 98.5923C562.678 98.5923 562.236 98.0033 562.236 97.4143C562.236 96.8253 562.678 96.2363 563.119 96.2363C563.561 96.2363 564.002 96.2363 564.002 97.4143Z" fill="white"/>
        <path opacity="0.7" d="M160.448 76.2112C160.448 76.8002 160.006 77.3892 159.564 77.3892C159.123 77.3892 158.681 76.8002 158.681 76.2112C158.681 75.6222 159.123 75.0332 159.564 75.0332C160.006 75.0332 160.448 75.6222 160.448 76.2112Z" fill="white"/>
        <path opacity="0.7" d="M450.089 417.244C450.089 417.833 449.648 418.422 449.206 418.422C448.765 418.422 448.323 417.833 448.323 417.244C448.323 416.655 448.765 416.066 449.206 416.066C449.648 416.066 450.089 416.655 450.089 417.244Z" fill="white"/>
        <path opacity="0.7" d="M199.301 146.89C199.301 147.479 198.86 148.068 198.418 148.068C197.976 148.068 197.535 147.479 197.535 146.89C197.535 146.301 197.976 145.712 198.418 145.712C198.86 145.712 199.301 146.301 199.301 146.89Z" fill="white"/>
        <path opacity="0.7" d="M128.213 408.991C128.213 409.58 127.771 410.169 127.33 410.169C126.888 410.169 126.447 409.58 126.447 408.991C126.447 408.402 126.888 407.813 127.33 407.813C127.771 407.813 128.213 408.402 128.213 408.991Z" fill="white"/>
        <path opacity="0.7" d="M137.486 27.3247C137.486 28.5027 136.603 29.6807 135.72 29.6807C134.837 29.6807 133.954 28.5027 133.954 27.3247C133.954 26.1467 134.837 24.9688 135.72 24.9688C136.603 24.9688 137.486 26.1467 137.486 27.3247Z" fill="white"/>
        <path opacity="0.7" d="M516.317 82.1001C516.317 83.2781 515.434 84.4561 514.551 84.4561C513.668 84.4561 512.785 83.2781 512.785 82.1001C512.785 80.9221 513.668 79.7441 514.551 79.7441C515.875 79.7441 516.317 80.3331 516.317 82.1001Z" fill="white"/>
        <path opacity="0.7" d="M22.689 360.104C22.689 361.282 22.2474 361.871 21.3644 361.871C20.4813 361.871 20.0398 361.282 20.0398 360.104C20.0398 358.926 20.4813 358.337 21.3644 358.337C22.2474 358.337 22.689 358.926 22.689 360.104Z" fill="white"/>
        <path opacity="0.7" d="M227.117 358.338C227.117 360.105 225.793 361.872 224.468 361.872C223.144 361.872 221.819 360.105 221.819 358.338C221.819 356.571 223.144 354.804 224.468 354.804C225.793 355.393 227.117 356.571 227.117 358.338Z" fill="white"/>
        <path opacity="0.7" d="M148.082 297.671C148.082 298.26 147.64 298.849 147.199 298.849C146.757 298.849 146.316 298.26 146.316 297.671C146.316 297.082 146.757 296.493 147.199 296.493C147.64 295.904 148.082 296.493 148.082 297.671Z" fill="white"/>
        <path opacity="0.7" d="M202.392 396.032C202.392 396.621 201.951 397.21 201.509 397.21C201.068 397.21 200.626 396.621 200.626 396.032C200.626 395.443 201.068 394.854 201.509 394.854C201.951 394.854 202.392 395.443 202.392 396.032Z" fill="white"/>
        <path opacity="0.7" d="M628.908 262.331C628.908 262.92 628.466 263.509 628.025 263.509C627.583 263.509 627.142 262.92 627.142 262.331C627.142 261.742 627.583 261.153 628.025 261.153C628.466 261.153 628.908 261.742 628.908 262.331Z" fill="white"/>
        <path opacity="0.7" d="M655.4 390.143C655.4 390.732 654.958 391.321 654.517 391.321C654.075 391.321 653.634 390.732 653.634 390.143C653.634 389.554 654.075 388.965 654.517 388.965C654.958 388.965 655.4 389.554 655.4 390.143Z" fill="white"/>
        <path opacity="0.7" d="M522.057 382.487C522.057 383.076 521.616 383.665 521.174 383.665C520.733 383.665 520.291 383.076 520.291 382.487C520.291 381.898 520.733 381.309 521.174 381.309C521.616 381.309 522.057 381.898 522.057 382.487Z" fill="white"/>
        <path opacity="0.7" d="M707.943 331.244C707.943 331.833 707.501 332.422 707.06 332.422C706.618 332.422 706.177 331.833 706.177 331.244C706.177 330.655 706.618 330.066 707.06 330.066C707.501 329.477 707.943 330.066 707.943 331.244Z" fill="white"/>
        <path opacity="0.7" d="M632.442 341.256C632.442 342.434 631.559 343.612 630.676 343.612C629.793 343.612 628.91 342.434 628.91 341.256C628.91 340.078 629.793 338.9 630.676 338.9C631.559 338.9 632.442 340.078 632.442 341.256Z" fill="white"/>
        <path opacity="0.7" d="M602.415 221.102C602.415 222.28 601.532 223.458 600.649 223.458C599.766 223.458 598.883 222.28 598.883 221.102C598.883 219.924 599.766 218.746 600.649 218.746C601.532 218.746 602.415 219.924 602.415 221.102Z" fill="white"/>
        <path opacity="0.7" d="M632 403.101C632 403.69 631.559 404.279 631.117 404.279C630.675 404.279 630.234 403.69 630.234 403.101C630.234 402.512 630.675 401.923 631.117 401.923C631.559 401.923 632 402.512 632 403.101Z" fill="white"/>
        <path opacity="0.7" d="M655.4 76.2112C655.4 76.8002 654.958 77.3892 654.517 77.3892C654.075 77.3892 653.634 76.8002 653.634 76.2112C653.634 75.6222 654.075 75.0332 654.517 75.0332C654.958 75.0332 655.4 75.6222 655.4 76.2112Z" fill="white"/>
        <path opacity="0.7" d="M650.101 153.958C650.101 154.547 649.659 155.136 649.218 155.136C648.776 155.136 648.334 154.547 648.334 153.958C648.334 153.369 648.776 152.78 649.218 152.78C649.659 152.78 650.101 153.369 650.101 153.958Z" fill="white"/>
        <path opacity="0.7" d="M604.184 47.9383C604.184 48.5273 603.742 49.1163 603.301 49.1163C602.859 49.1163 602.418 48.5273 602.418 47.9383C602.418 47.3493 602.859 46.7604 603.301 46.7604C603.742 46.1714 604.184 46.7604 604.184 47.9383Z" fill="white"/>
        <path opacity="0.7" d="M632.442 27.3247C632.442 28.5027 631.559 29.6807 630.676 29.6807C629.793 29.6807 628.91 28.5027 628.91 27.3247C628.91 26.1467 629.793 24.9688 630.676 24.9688C631.559 24.9688 632.442 26.1467 632.442 27.3247Z" fill="white"/>
        <path opacity="0.7" d="M558.262 204.61C558.262 205.788 557.379 206.966 556.496 206.966C555.613 206.966 554.73 205.788 554.73 204.61C554.73 203.432 555.613 202.254 556.496 202.254C557.379 202.254 558.262 203.432 558.262 204.61Z" fill="white"/>
        <path opacity="0.7" d="M535.303 296.493C535.303 297.082 534.861 297.671 534.42 297.671C533.978 297.671 533.537 297.082 533.537 296.493C533.537 295.904 533.978 295.315 534.42 295.315C534.861 295.315 535.303 295.904 535.303 296.493Z" fill="white"/>
        <path opacity="0.7" d="M51.3887 406.045C51.3887 407.223 50.9471 407.812 50.0641 407.812C49.181 407.812 48.7395 407.223 48.7395 406.045C48.7395 404.867 49.181 404.278 50.0641 404.278C50.9471 404.278 51.3887 404.867 51.3887 406.045Z" fill="white"/>
        <path opacity="0.7" d="M399.314 267.633C399.314 269.4 397.989 271.167 396.665 271.167C395.34 271.167 394.015 269.4 394.015 267.633C394.015 265.866 395.34 264.099 396.665 264.099C397.989 264.688 399.314 265.866 399.314 267.633Z" fill="white"/>
        <path opacity="0.7" d="M368.406 262.331C368.406 262.92 367.965 263.509 367.523 263.509C367.082 263.509 366.64 262.92 366.64 262.331C366.64 261.742 367.082 261.153 367.523 261.153C367.965 261.153 368.406 261.742 368.406 262.331Z" fill="white"/>
        <path opacity="0.7" d="M314.099 122.152C314.099 122.741 313.657 123.33 313.216 123.33C312.774 123.33 312.333 122.741 312.333 122.152C312.333 121.563 312.774 120.974 313.216 120.974C313.657 120.385 314.099 120.974 314.099 122.152Z" fill="white"/>
        <path opacity="0.7" d="M395.338 390.143C395.338 390.732 394.896 391.321 394.455 391.321C394.013 391.321 393.572 390.732 393.572 390.143C393.572 389.554 394.013 388.965 394.455 388.965C394.896 388.965 395.338 389.554 395.338 390.143Z" fill="white"/>
        <path opacity="0.7" d="M344.122 361.282C344.122 361.871 343.681 362.46 343.239 362.46C342.797 362.46 342.356 361.871 342.356 361.282C342.356 360.693 342.797 360.104 343.239 360.104C343.681 360.104 344.122 360.693 344.122 361.282Z" fill="white"/>
        <path opacity="0.7" d="M461.128 409.579C461.128 410.168 460.686 410.757 460.245 410.757C459.803 410.757 459.362 410.168 459.362 409.579C459.362 408.99 459.803 408.401 460.245 408.401C460.686 408.401 461.128 408.99 461.128 409.579Z" fill="white"/>
        <path opacity="0.7" d="M320.278 333.01C320.278 333.599 319.837 334.188 319.395 334.188C318.954 334.188 318.512 333.599 318.512 333.01C318.512 332.421 318.954 331.832 319.395 331.832C319.837 331.243 320.278 331.832 320.278 333.01Z" fill="white"/>
        <path opacity="0.7" d="M461.128 235.826C461.128 236.415 460.686 237.004 460.245 237.004C459.803 237.004 459.362 236.415 459.362 235.826C459.362 235.237 459.803 234.648 460.245 234.648C460.686 234.648 461.128 235.237 461.128 235.826Z" fill="white"/>
        <path opacity="0.7" d="M361.783 204.611C361.783 205.2 361.341 205.789 360.9 205.789C360.458 205.789 360.017 205.2 360.017 204.611C360.017 204.022 360.458 203.433 360.9 203.433C361.341 203.433 361.783 204.022 361.783 204.611Z" fill="white"/>
        <path opacity="0.7" d="M252.727 267.632C252.727 268.81 251.844 269.988 250.961 269.988C250.078 269.988 249.195 268.81 249.195 267.632C249.195 266.454 250.078 265.276 250.961 265.276C251.844 265.276 252.727 266.454 252.727 267.632Z" fill="white"/>
        <path opacity="0.7" d="M270.828 235.828C270.828 237.006 269.945 238.184 269.062 238.184C268.179 238.184 267.296 237.006 267.296 235.828C267.296 234.65 268.179 233.472 269.062 233.472C269.945 233.472 270.828 234.65 270.828 235.828Z" fill="white"/>
        <path opacity="0.7" d="M256.259 393.677C256.259 394.855 255.376 396.033 254.493 396.033C253.61 396.033 252.727 394.855 252.727 393.677C252.727 392.499 253.61 391.321 254.493 391.321C255.376 391.321 256.259 392.499 256.259 393.677Z" fill="white"/>
        <path opacity="0.7" d="M341.913 221.102C341.913 222.28 341.03 223.458 340.147 223.458C339.263 223.458 338.38 222.28 338.38 221.102C338.38 219.924 339.263 218.746 340.147 218.746C341.03 218.746 341.913 219.924 341.913 221.102Z" fill="white"/>
        <path opacity="0.7" d="M303.5 379.54C303.5 380.718 303.058 381.307 302.175 381.307C301.292 381.307 300.851 380.718 300.851 379.54C300.851 378.362 301.292 377.773 302.175 377.773C303.058 377.773 303.5 378.362 303.5 379.54Z" fill="white"/>
        <path opacity="0.7" d="M431.985 311.806C431.985 313.573 430.661 315.34 429.336 315.34C428.011 315.34 426.687 313.573 426.687 311.806C426.687 310.039 428.011 308.272 429.336 308.272C431.102 308.272 431.985 309.45 431.985 311.806Z" fill="white"/>
        <path opacity="0.7" d="M306.151 191.654C306.151 192.832 305.71 193.421 304.827 193.421C303.943 193.421 303.502 192.832 303.502 191.654C303.502 190.476 303.943 189.887 304.827 189.887C305.268 189.887 306.151 190.476 306.151 191.654Z" fill="white"/>
        <path opacity="0.7" d="M281.868 1.40905C281.868 1.99804 281.427 2.58703 280.985 2.58703C280.544 2.58703 280.102 1.99804 280.102 1.40905C280.102 0.82006 280.544 0.231064 280.985 0.231064C281.427 -0.357928 281.868 0.231068 281.868 1.40905Z" fill="white"/>
        <path opacity="0.7" d="M282.748 123.33C282.748 123.919 282.306 124.508 281.865 124.508C281.423 124.508 280.982 123.919 280.982 123.33C280.982 122.741 281.423 122.152 281.865 122.152C282.306 122.152 282.748 122.741 282.748 123.33Z" fill="white"/>
        <path opacity="0.7" d="M395.338 76.2112C395.338 76.8002 394.896 77.3892 394.455 77.3892C394.013 77.3892 393.572 76.8002 393.572 76.2112C393.572 75.6222 394.013 75.0332 394.455 75.0332C394.896 75.0332 395.338 75.6222 395.338 76.2112Z" fill="white"/>
        <path opacity="0.7" d="M390.042 153.958C390.042 154.547 389.601 155.136 389.159 155.136C388.718 155.136 388.276 154.547 388.276 153.958C388.276 153.369 388.718 152.78 389.159 152.78C389.601 152.78 390.042 153.369 390.042 153.958Z" fill="white"/>
        <path opacity="0.7" d="M344.122 47.9383C344.122 48.5273 343.681 49.1163 343.239 49.1163C342.797 49.1163 342.356 48.5273 342.356 47.9383C342.356 47.3493 342.797 46.7604 343.239 46.7604C343.681 46.1714 344.122 46.7604 344.122 47.9383Z" fill="white"/>
        <path opacity="0.7" d="M433.313 148.068C433.8 148.068 434.196 147.54 434.196 146.89C434.196 146.239 433.8 145.712 433.313 145.712C432.825 145.712 432.43 146.239 432.43 146.89C432.43 147.54 432.825 148.068 433.313 148.068Z" fill="white"/>
        <path opacity="0.7" d="M320.722 19.0783C320.722 19.6673 320.28 20.2563 319.839 20.2563C319.397 20.2563 318.956 19.6673 318.956 19.0783C318.956 18.4894 319.397 17.9004 319.839 17.9004C320.28 17.9004 320.722 18.4894 320.722 19.0783Z" fill="white"/>
        <path opacity="0.7" d="M25.3381 5.53101C25.3381 7.29798 24.0136 9.06496 22.689 9.06496C21.3644 9.06496 20.0398 7.29798 20.0398 5.53101C20.0398 3.76404 21.3644 1.99707 22.689 1.99707C24.4551 1.99707 25.3381 3.76404 25.3381 5.53101Z" fill="white"/>
        <path opacity="0.7" d="M371.94 27.3247C371.94 28.5027 371.057 29.6807 370.174 29.6807C369.291 29.6807 368.407 28.5027 368.407 27.3247C368.407 26.1467 369.291 24.9688 370.174 24.9688C371.057 24.9688 371.94 26.1467 371.94 27.3247Z" fill="white"/>
        <path opacity="0.7" d="M356.927 151.601C356.927 152.779 356.043 153.957 355.16 153.957C354.277 153.957 353.394 152.779 353.394 151.601C353.394 150.423 354.277 149.245 355.16 149.245C356.485 149.245 356.927 150.423 356.927 151.601Z" fill="white"/>
        <path opacity="0.7" d="M327.343 120.385C327.343 121.563 326.46 122.741 325.577 122.741C324.694 122.741 323.811 121.563 323.811 120.385C323.811 119.207 324.694 118.029 325.577 118.029C326.902 118.029 327.343 118.618 327.343 120.385Z" fill="white"/>
        <path opacity="0.7" d="M256.259 80.3335C256.259 81.5115 255.376 82.6895 254.493 82.6895C253.61 82.6895 252.727 81.5115 252.727 80.3335C252.727 79.1555 253.61 77.9775 254.493 77.9775C255.376 77.9775 256.259 78.5665 256.259 80.3335Z" fill="white"/>
        <path opacity="0.7" d="M303.5 65.6078C303.5 66.7858 303.058 67.3748 302.175 67.3748C301.292 67.3748 300.851 66.7858 300.851 65.6078C300.851 64.4298 301.292 63.8408 302.175 63.8408C303.058 63.8408 303.5 65.0188 303.5 65.6078Z" fill="white"/>
        <path opacity="0.7" d="M280.983 149.834C280.983 151.012 280.542 151.601 279.659 151.601C278.776 151.601 278.334 151.012 278.334 149.834C278.334 148.656 278.776 148.067 279.659 148.067C280.1 148.067 280.983 148.656 280.983 149.834Z" fill="white"/>
        <path opacity="0.7" d="M360.018 109.783C360.018 110.961 359.577 111.55 358.694 111.55C357.811 111.55 357.369 110.961 357.369 109.783C357.369 108.605 357.811 108.016 358.694 108.016C359.135 108.016 360.018 108.605 360.018 109.783Z" fill="white"/>
        <path opacity="0.7" d="M250.958 142.177C250.958 143.944 249.634 145.711 248.309 145.711C246.984 145.711 245.66 143.944 245.66 142.177C245.66 140.411 246.984 138.644 248.309 138.644C250.075 138.644 250.958 140.411 250.958 142.177Z" fill="white"/>
        <path opacity="0.7" d="M380.769 343.613C380.769 344.202 380.327 344.791 379.886 344.791C379.444 344.791 379.002 344.202 379.002 343.613C379.002 343.024 379.444 342.435 379.886 342.435C380.327 342.435 380.769 343.024 380.769 343.613Z" fill="white"/>
        <path opacity="0.7" d="M285.839 406.045C285.839 407.223 285.397 407.812 284.514 407.812C283.631 407.812 283.19 407.223 283.19 406.045C283.19 404.867 283.631 404.278 284.514 404.278C285.397 404.278 285.839 404.867 285.839 406.045Z" fill="white"/>
        <path opacity="0.7" d="M419.622 53.2395C419.622 53.8285 419.181 54.4175 418.739 54.4175C418.298 54.4175 417.856 53.8285 417.856 53.2395C417.856 52.6505 418.298 52.0615 418.739 52.0615C419.181 52.0615 419.622 52.6505 419.622 53.2395Z" fill="white"/>
        <path opacity="0.7" d="M409.029 198.72C409.029 200.487 407.704 202.254 406.379 202.254C405.055 202.254 403.73 200.487 403.73 198.72C403.73 196.953 405.055 195.187 406.379 195.187C407.704 195.187 409.029 196.953 409.029 198.72Z" fill="white"/>
        <path opacity="0.7" d="M433.754 144.534C433.754 145.712 432.871 146.89 431.988 146.89C431.105 146.89 430.221 145.712 430.221 144.534C430.221 143.356 431.105 142.178 431.988 142.178C433.312 142.178 433.754 143.356 433.754 144.534Z" fill="white"/>
        <path opacity="0.7" d="M464.218 53.2398C464.218 54.4177 463.334 55.5957 462.451 55.5957C461.568 55.5957 460.685 54.4177 460.685 53.2398C460.685 52.0618 461.568 50.8838 462.451 50.8838C463.776 50.8838 464.218 52.0618 464.218 53.2398Z" fill="white"/>
        <path opacity="0.7" d="M449.647 211.678C449.647 212.856 448.764 214.034 447.881 214.034C446.998 214.034 446.115 212.856 446.115 211.678C446.115 210.5 446.998 209.322 447.881 209.322C448.764 209.322 449.647 210.5 449.647 211.678Z" fill="white"/>
        <path opacity="0.7" d="M479.672 223.458C479.672 224.636 479.23 225.225 478.347 225.225C477.464 225.225 477.022 224.636 477.022 223.458C477.022 222.28 477.464 221.691 478.347 221.691C478.789 221.691 479.672 222.869 479.672 223.458Z" fill="white"/>
        <path opacity="0.7" d="M608.157 155.136C608.157 154.547 608.598 153.958 609.04 153.958C609.481 153.958 609.923 154.547 609.923 155.136C609.923 155.725 609.481 156.314 609.04 156.314C608.598 156.903 608.157 156.314 608.157 155.136Z" fill="white"/>
        <path opacity="0.7" d="M581.665 27.3245C581.665 26.7355 582.107 26.1465 582.548 26.1465C582.99 26.1465 583.431 26.7355 583.431 27.3245C583.431 27.9135 582.99 28.5025 582.548 28.5025C582.107 28.5025 581.665 28.5025 581.665 27.3245Z" fill="white"/>
        <path opacity="0.7" d="M515.436 182.23C515.436 181.641 515.877 181.052 516.319 181.052C516.76 181.052 517.202 181.641 517.202 182.23C517.202 182.819 516.76 183.408 516.319 183.408C515.877 183.408 515.436 182.819 515.436 182.23Z" fill="white"/>
        <path opacity="0.7" d="M526.474 36.7478C526.474 34.9808 527.798 33.2139 529.123 33.2139C530.448 33.2139 531.772 34.9808 531.772 36.7478C531.772 38.5148 530.448 40.2818 529.123 40.2818C527.798 40.2818 526.474 38.5148 526.474 36.7478Z" fill="white"/>
        <path opacity="0.7" d="M604.626 76.7993C604.626 75.6213 605.509 74.4434 606.392 74.4434C607.275 74.4434 608.158 75.6213 608.158 76.7993C608.158 77.9773 607.275 79.1553 606.392 79.1553C605.509 79.1553 604.626 77.9773 604.626 76.7993Z" fill="white"/>
        <path opacity="0.7" d="M586.964 264.099C586.964 263.51 587.406 262.921 587.847 262.921C588.289 262.921 588.73 263.51 588.73 264.099C588.73 264.688 588.289 265.277 587.847 265.277C587.406 265.277 586.964 264.688 586.964 264.099Z" fill="white"/>
        <path opacity="0.7" d="M604.626 390.142C604.626 388.964 605.509 387.786 606.392 387.786C607.275 387.786 608.158 388.964 608.158 390.142C608.158 391.32 607.275 392.498 606.392 392.498C605.509 392.498 604.626 391.909 604.626 390.142Z" fill="white"/>
        <path opacity="0.7" d="M196.211 59.719C196.211 59.13 196.653 58.541 197.094 58.541C197.536 58.541 197.977 59.13 197.977 59.719C197.977 60.308 197.536 60.897 197.094 60.897C196.653 60.897 196.211 60.308 196.211 59.719Z" fill="white"/>
        <path opacity="0.7" d="M528.682 102.126C528.682 100.948 529.565 99.7705 530.448 99.7705C531.331 99.7705 532.214 100.948 532.214 102.126C532.214 103.304 531.331 104.482 530.448 104.482C529.565 104.482 528.682 103.304 528.682 102.126Z" fill="white"/>
        <path opacity="0.7" d="M485.853 23.7905C485.853 22.6126 486.736 21.4346 487.619 21.4346C488.502 21.4346 489.385 22.6126 489.385 23.7905C489.385 24.9685 488.502 26.1465 487.619 26.1465C486.736 26.1465 485.853 24.9685 485.853 23.7905Z" fill="white"/>
        <path opacity="0.7" d="M485.853 337.723C485.853 336.545 486.736 335.367 487.619 335.367C488.502 335.367 489.385 336.545 489.385 337.723C489.385 338.901 488.502 340.079 487.619 340.079C486.294 340.079 485.853 338.901 485.853 337.723Z" fill="white"/>
        <path opacity="0.7" d="M491.152 275.879C491.152 274.112 492.477 272.345 493.802 272.345C495.126 272.345 496.451 274.112 496.451 275.879C496.451 277.646 495.126 279.413 493.802 279.413C492.035 278.824 491.152 277.646 491.152 275.879Z" fill="white"/>
        <path opacity="0.7" d="M820.089 266.454C820.089 267.632 819.647 268.221 818.764 268.221C817.881 268.221 817.44 267.632 817.44 266.454C817.44 265.276 817.881 264.688 818.764 264.688C819.206 264.688 820.089 265.276 820.089 266.454Z" fill="white"/>
        <path opacity="0.7" d="M791.834 262.331C791.834 262.92 791.392 263.509 790.951 263.509C790.509 263.509 790.068 262.92 790.068 262.331C790.068 261.742 790.509 261.153 790.951 261.153C791.392 261.153 791.834 261.742 791.834 262.331Z" fill="white"/>
        <path opacity="0.7" d="M874.397 266.455C874.397 267.044 873.955 267.633 873.514 267.633C873.072 267.633 872.631 267.044 872.631 266.455C872.631 265.866 873.072 265.277 873.514 265.277C873.955 264.688 874.397 265.277 874.397 266.455Z" fill="white"/>
        <path opacity="0.7" d="M818.325 390.143C818.325 390.732 817.884 391.321 817.442 391.321C817.001 391.321 816.559 390.732 816.559 390.143C816.559 389.554 817.001 388.965 817.442 388.965C817.884 388.965 818.325 389.554 818.325 390.143Z" fill="white"/>
        <path opacity="0.7" d="M123.798 86.2235C123.798 86.8125 123.356 87.4015 122.915 87.4015C122.473 87.4015 122.032 86.8125 122.032 86.2235C122.032 85.6345 122.473 85.0455 122.915 85.0455C123.356 84.4565 123.798 85.0455 123.798 86.2235Z" fill="white"/>
        <path opacity="0.7" d="M983.015 311.808C983.015 312.396 982.574 312.985 982.132 312.985C981.691 312.985 981.249 312.396 981.249 311.808C981.249 311.219 981.691 310.629 982.132 310.629C982.574 310.041 983.015 310.63 983.015 311.808Z" fill="white"/>
        <path opacity="0.7" d="M884.111 235.826C884.111 236.415 883.67 237.004 883.228 237.004C882.786 237.004 882.345 236.415 882.345 235.826C882.345 235.237 882.786 234.648 883.228 234.648C883.67 234.648 884.111 235.237 884.111 235.826Z" fill="white"/>
        <path opacity="0.7" d="M785.211 204.611C785.211 205.2 784.769 205.789 784.328 205.789C783.886 205.789 783.445 205.2 783.445 204.611C783.445 204.022 783.886 203.433 784.328 203.433C784.769 203.433 785.211 204.022 785.211 204.611Z" fill="white"/>
        <path opacity="0.7" d="M768.873 283.536C768.873 284.714 768.431 285.303 767.548 285.303C766.665 285.303 766.223 284.714 766.223 283.536C766.223 282.358 766.665 281.769 767.548 281.769C767.99 281.769 768.873 282.358 768.873 283.536Z" fill="white"/>
        <path opacity="0.7" d="M5.90942 57.363C5.90942 59.13 4.58484 60.897 3.26026 60.897C1.93567 60.897 0.611084 59.13 0.611084 57.363C0.611084 55.5961 1.93567 53.8291 3.26026 53.8291C5.02637 54.4181 5.90942 55.5961 5.90942 57.363Z" fill="white"/>
        <path opacity="0.7" d="M694.256 235.828C694.256 237.006 693.373 238.184 692.49 238.184C691.607 238.184 690.724 237.006 690.724 235.828C690.724 234.65 691.607 233.472 692.49 233.472C693.373 233.472 694.256 234.65 694.256 235.828Z" fill="white"/>
        <path opacity="0.7" d="M765.34 221.102C765.34 222.28 764.457 223.458 763.574 223.458C762.691 223.458 761.808 222.28 761.808 221.102C761.808 219.924 762.691 218.746 763.574 218.746C764.457 218.746 765.34 219.924 765.34 221.102Z" fill="white"/>
        <path opacity="0.7" d="M704.852 1.40905C704.852 1.99804 704.41 2.58703 703.969 2.58703C703.527 2.58703 703.085 1.99804 703.085 1.40905C703.085 0.82006 703.527 0.231064 703.969 0.231064C704.41 -0.357928 704.852 0.231068 704.852 1.40905Z" fill="white"/>
        <path opacity="0.7" d="M888.526 55.0057C888.526 55.5947 888.085 56.1837 887.643 56.1837C887.202 56.1837 886.76 55.5947 886.76 55.0057C886.76 54.4167 887.202 53.8277 887.643 53.8277C888.085 53.2388 888.526 53.8277 888.526 55.0057Z" fill="white"/>
        <path opacity="0.7" d="M818.325 76.2112C818.325 76.8002 817.884 77.3892 817.442 77.3892C817.001 77.3892 816.559 76.8002 816.559 76.2112C816.559 75.6222 817.001 75.0332 817.442 75.0332C817.884 75.0332 818.325 75.6222 818.325 76.2112Z" fill="white"/>
        <path opacity="0.7" d="M813.027 153.958C813.027 154.547 812.585 155.136 812.144 155.136C811.702 155.136 811.26 154.547 811.26 153.958C811.26 153.369 811.702 152.78 812.144 152.78C812.585 152.78 813.027 153.369 813.027 153.958Z" fill="white"/>
        <path opacity="0.7" d="M767.106 47.9383C767.106 48.5273 766.665 49.1163 766.223 49.1163C765.782 49.1163 765.34 48.5273 765.34 47.9383C765.34 47.3493 765.782 46.7604 766.223 46.7604C766.665 46.1714 767.106 46.7604 767.106 47.9383Z" fill="white"/>
        <path opacity="0.7" d="M857.179 146.89C857.179 147.479 856.738 148.068 856.296 148.068C855.855 148.068 855.413 147.479 855.413 146.89C855.413 146.301 855.855 145.712 856.296 145.712C856.738 145.712 857.179 146.301 857.179 146.89Z" fill="white"/>
        <path opacity="0.7" d="M743.705 19.0783C743.705 19.6673 743.264 20.2563 742.822 20.2563C742.38 20.2563 741.939 19.6673 741.939 19.0783C741.939 18.4894 742.38 17.9004 742.822 17.9004C743.264 17.9004 743.705 18.4894 743.705 19.0783Z" fill="white"/>
        <path opacity="0.7" d="M795.364 27.3247C795.364 28.5027 794.48 29.6807 793.597 29.6807C792.714 29.6807 791.831 28.5027 791.831 27.3247C791.831 26.1467 792.714 24.9688 793.597 24.9688C794.48 24.9688 795.364 26.1467 795.364 27.3247Z" fill="white"/>
        <path opacity="0.7" d="M780.354 151.601C780.354 152.779 779.471 153.957 778.588 153.957C777.705 153.957 776.822 152.779 776.822 151.601C776.822 150.423 777.705 149.245 778.588 149.245C779.471 149.245 780.354 150.423 780.354 151.601Z" fill="white"/>
        <path opacity="0.7" d="M750.771 120.385C750.771 121.563 749.888 122.741 749.005 122.741C748.122 122.741 747.239 121.563 747.239 120.385C747.239 119.207 748.122 118.029 749.005 118.029C749.888 118.029 750.771 118.618 750.771 120.385Z" fill="white"/>
        <path opacity="0.7" d="M679.683 80.3335C679.683 81.5115 678.8 82.6895 677.916 82.6895C677.033 82.6895 676.15 81.5115 676.15 80.3335C676.15 79.1555 677.033 77.9775 677.916 77.9775C678.8 77.9775 679.683 78.5665 679.683 80.3335Z" fill="white"/>
        <path opacity="0.7" d="M726.488 65.6078C726.488 66.7858 726.046 67.3748 725.163 67.3748C724.28 67.3748 723.838 66.7858 723.838 65.6078C723.838 64.4298 724.28 63.8408 725.163 63.8408C726.046 63.8408 726.488 65.0188 726.488 65.6078Z" fill="white"/>
        <path opacity="0.7" d="M805.96 297.671C805.96 298.26 805.518 298.849 805.077 298.849C804.635 298.849 804.194 298.26 804.194 297.671C804.194 297.082 804.635 296.493 805.077 296.493C805.518 295.904 805.96 296.493 805.96 297.671Z" fill="white"/>
        <path opacity="0.7" d="M544.576 340.667C544.576 341.845 543.693 343.023 542.81 343.023C541.927 343.023 541.044 341.845 541.044 340.667C541.044 339.489 541.927 338.312 542.81 338.312C543.693 338.312 544.576 338.9 544.576 340.667Z" fill="white"/>
        <path opacity="0.7" d="M888.526 393.677C888.526 394.266 888.085 394.855 887.643 394.855C887.202 394.855 886.76 394.266 886.76 393.677C886.76 393.088 887.202 392.499 887.643 392.499C888.085 392.499 888.526 393.088 888.526 393.677Z" fill="white"/>
        <path opacity="0.7" d="M709.267 406.045C709.267 407.223 708.825 407.812 707.942 407.812C707.059 407.812 706.617 407.223 706.617 406.045C706.617 404.867 707.059 404.278 707.942 404.278C708.825 404.278 709.267 404.867 709.267 406.045Z" fill="white"/>
        <path opacity="0.7" d="M971.977 122.152C971.977 122.741 971.535 123.33 971.094 123.33C970.652 123.33 970.21 122.741 970.21 122.152C970.21 121.563 970.652 120.974 971.094 120.974C971.535 120.385 971.977 120.974 971.977 122.152Z" fill="white"/>
        <path opacity="0.7" d="M1002 361.282C1002 361.871 1001.56 362.46 1001.12 362.46C1000.67 362.46 1000.23 361.871 1000.23 361.282C1000.23 360.693 1000.67 360.104 1001.12 360.104C1001.56 360.104 1002 360.693 1002 361.282Z" fill="white"/>
        <path opacity="0.7" d="M910.605 267.632C910.605 268.81 909.722 269.988 908.839 269.988C907.956 269.988 907.073 268.81 907.073 267.632C907.073 266.454 907.956 265.276 908.839 265.276C909.722 265.276 910.605 266.454 910.605 267.632Z" fill="white"/>
        <path opacity="0.7" d="M928.707 235.828C928.707 237.006 927.823 238.184 926.94 238.184C926.057 238.184 925.174 237.006 925.174 235.828C925.174 234.65 926.057 233.472 926.94 233.472C928.265 233.472 928.707 234.65 928.707 235.828Z" fill="white"/>
        <path opacity="0.7" d="M914.137 393.677C914.137 394.855 913.254 396.033 912.371 396.033C911.488 396.033 910.604 394.855 910.604 393.677C910.604 392.499 911.488 391.321 912.371 391.321C913.254 391.321 914.137 392.499 914.137 393.677Z" fill="white"/>
        <path opacity="0.7" d="M999.791 221.102C999.791 222.28 998.908 223.458 998.025 223.458C997.142 223.458 996.259 222.28 996.259 221.102C996.259 219.924 997.142 218.746 998.025 218.746C999.349 218.746 999.791 219.924 999.791 221.102Z" fill="white"/>
        <path opacity="0.7" d="M961.379 379.54C961.379 380.718 960.937 381.307 960.054 381.307C959.171 381.307 958.729 380.718 958.729 379.54C958.729 378.362 959.171 377.773 960.054 377.773C960.937 377.773 961.379 378.362 961.379 379.54Z" fill="white"/>
        <path opacity="0.7" d="M964.029 191.654C964.029 192.832 963.588 193.421 962.704 193.421C961.821 193.421 961.38 192.832 961.38 191.654C961.38 190.476 961.821 189.887 962.704 189.887C963.588 189.887 964.029 190.476 964.029 191.654Z" fill="white"/>
        <path opacity="0.7" d="M983.015 625.095C983.015 625.684 982.574 626.273 982.132 626.273C981.691 626.273 981.249 625.684 981.249 625.095C981.249 624.506 981.691 623.917 982.132 623.917C982.574 623.328 983.015 623.917 983.015 625.095Z" fill="white"/>
        <path opacity="0.7" d="M971.977 435.439C971.977 436.028 971.535 436.617 971.094 436.617C970.652 436.617 970.21 436.028 970.21 435.439C970.21 434.85 970.652 434.261 971.094 434.261C971.535 433.672 971.977 434.261 971.977 435.439Z" fill="white"/>
        <path opacity="0.7" d="M910.605 580.919C910.605 582.097 909.722 583.275 908.839 583.275C907.956 583.275 907.073 582.097 907.073 580.919C907.073 579.741 907.956 578.563 908.839 578.563C909.722 578.563 910.605 579.741 910.605 580.919Z" fill="white"/>
        <path opacity="0.7" d="M928.707 549.115C928.707 550.293 927.823 551.471 926.94 551.471C926.057 551.471 925.174 550.293 925.174 549.115C925.174 547.937 926.057 546.759 926.94 546.759C928.265 546.759 928.707 547.937 928.707 549.115Z" fill="white"/>
        <path opacity="0.7" d="M999.791 534.39C999.791 535.568 998.908 536.746 998.025 536.746C997.142 536.746 996.259 535.568 996.259 534.39C996.259 533.212 997.142 532.034 998.025 532.034C999.349 532.034 999.791 533.212 999.791 534.39Z" fill="white"/>
        <path opacity="0.7" d="M964.029 504.942C964.029 506.12 963.588 506.709 962.704 506.709C961.821 506.709 961.38 506.12 961.38 504.942C961.38 503.764 961.821 503.175 962.704 503.175C963.588 503.175 964.029 503.764 964.029 504.942Z" fill="white"/>
        <path opacity="0.7" d="M939.747 1.40905C939.747 1.99804 939.305 2.58703 938.864 2.58703C938.422 2.58703 937.98 1.99804 937.98 1.40905C937.98 0.82006 938.422 0.231064 938.864 0.231064C939.305 -0.357928 939.747 0.231068 939.747 1.40905Z" fill="white"/>
        <path opacity="0.7" d="M1002 47.9383C1002 48.5273 1001.56 49.1163 1001.12 49.1163C1000.67 49.1163 1000.23 48.5273 1000.23 47.9383C1000.23 47.3493 1000.67 46.7604 1001.12 46.7604C1001.56 46.1714 1002 46.7604 1002 47.9383Z" fill="white"/>
        <path opacity="0.7" d="M978.6 19.0783C978.6 19.6673 978.159 20.2563 977.717 20.2563C977.275 20.2563 976.834 19.6673 976.834 19.0783C976.834 18.4894 977.275 17.9004 977.717 17.9004C978.159 17.9004 978.6 18.4894 978.6 19.0783Z" fill="white"/>
        <path opacity="0.7" d="M435.52 362.461C435.52 364.228 434.195 365.995 432.871 365.995C431.546 365.995 430.221 364.228 430.221 362.461C430.221 360.694 431.546 358.927 432.871 358.927C434.637 359.516 435.52 360.694 435.52 362.461Z" fill="white"/>
        <g opacity="0.7">
            <path opacity="0.7" d="M485.413 99.1807L485.855 111.549L495.568 112.727L486.296 113.316L485.413 126.274L484.53 113.316L475.258 112.727L484.53 111.549L485.413 99.1807Z" fill="white"/>
            <path opacity="0.7" d="M489.386 106.838L486.296 112.139L489.386 118.029L485.413 113.317L480.997 118.618L484.53 112.728L480.997 106.838L485.413 111.55L489.386 106.838Z" fill="white"/>
        </g>
        <g opacity="0.7">
            <path opacity="0.7" d="M385.186 73.8545L386.069 86.2233L395.341 87.4013L386.069 87.9903L385.186 100.948L384.303 87.9903L375.031 87.4013L384.303 86.2233L385.186 73.8545Z" fill="white"/>
            <path opacity="0.7" d="M389.159 81.5117L386.068 87.4016L389.159 92.7025L385.185 88.5796L380.77 93.2915L384.744 87.4016L380.77 82.1007L385.185 86.2236L389.159 81.5117Z" fill="white"/>
        </g>
        <g opacity="0.7">
            <path opacity="0.7" d="M449.208 398.979L449.649 407.224L456.272 408.402H449.649L449.208 417.826L448.766 408.402H442.143L448.766 407.224L449.208 398.979Z" fill="white"/>
            <path opacity="0.7" d="M451.858 404.279L449.651 407.813L451.858 411.936L449.209 408.402L446.118 411.936L448.768 407.813L446.118 404.279L449.209 407.224L451.858 404.279Z" fill="white"/>
        </g>
        <g opacity="0.7">
            <path opacity="0.7" d="M228.884 56.7734L229.325 65.0193L235.948 66.1973H229.767L228.884 75.6211L228.442 66.1973H221.819L228.442 65.0193L228.884 56.7734Z" fill="white"/>
            <path opacity="0.7" d="M231.976 62.0742L229.768 65.6082L231.976 69.7311L228.885 66.7861L225.794 69.7311L228.443 66.1971L225.794 62.0742L228.885 65.0192L231.976 62.0742Z" fill="white"/>
        </g>
        <g opacity="0.7">
            <path opacity="0.7" d="M639.506 47.3496L639.947 55.5955L646.57 56.7734H639.947L639.506 66.1973L639.064 56.7734H632.441L639.064 55.5955L639.506 47.3496Z" fill="white"/>
            <path opacity="0.7" d="M642.598 52.6504L639.948 56.1844L642.598 60.3073L639.507 57.3623L636.416 60.3073L639.065 56.7733L636.416 52.6504L639.507 55.5953L642.598 52.6504Z" fill="white"/>
        </g>
        <g opacity="0.7">
            <path opacity="0.7" d="M828.922 364.816L829.806 376.596L839.078 378.363H829.806L828.922 391.91L828.039 378.363H818.767L828.039 376.596L828.922 364.816Z" fill="white"/>
            <path opacity="0.7" d="M832.895 371.884L829.805 377.774L832.895 383.664L828.922 378.952L824.506 383.664L828.48 377.774L824.506 372.473L828.922 376.596L832.895 371.884Z" fill="white"/>
        </g>
        <g opacity="0.7">
            <path opacity="0.7" d="M892.945 56.7734L893.387 65.0193L900.01 66.1973H893.387L892.945 75.6211L892.504 66.1973H885.881L892.504 65.0193L892.945 56.7734Z" fill="white"/>
            <path opacity="0.7" d="M895.595 62.0742L893.388 65.6082L895.595 69.7311L892.946 66.7861L889.855 69.7311L892.505 66.1971L889.855 62.0742L892.946 65.0192L895.595 62.0742Z" fill="white"/>
        </g>
        <g opacity="0.7">
            <path opacity="0.7" d="M752.095 252.908L752.537 261.743L759.16 262.332L752.537 262.921L752.095 271.756L751.654 262.921L745.031 262.332L751.654 261.743L752.095 252.908Z" fill="white"/>
            <path opacity="0.7" d="M754.746 258.209L752.539 262.332L754.746 266.455L752.097 262.921L749.006 266.455L751.656 262.332L749.006 258.798L752.097 261.743L754.746 258.209Z" fill="white"/>
        </g>
        <g opacity="0.7">
            <path opacity="0.7" d="M658.49 307.685L658.932 316.519L665.554 317.108L658.932 317.697L658.49 326.532L658.048 317.697L651.426 317.108L658.048 316.519L658.49 307.685Z" fill="white"/>
            <path opacity="0.7" d="M661.141 312.985L658.933 317.108L661.141 321.231L658.492 317.697L655.401 321.231L658.05 317.108L655.401 313.574L658.492 316.519L661.141 312.985Z" fill="white"/>
        </g>
        <g opacity="0.7">
            <path opacity="0.7" d="M698.672 74.4434L699.555 82.6892L705.736 83.8672H699.555L698.672 93.2911L698.23 83.8672H691.607L698.23 82.6892L698.672 74.4434Z" fill="white"/>
            <path opacity="0.7" d="M701.764 79.7441L699.556 83.2781L701.764 87.401L699.115 84.4561L695.583 87.401L698.232 83.8671L695.583 79.7441L698.673 82.6891L701.764 79.7441Z" fill="white"/>
        </g>
        <path opacity="0.7" d="M847.351 725.033C847.351 723.855 847.792 723.266 848.675 723.266C849.558 723.266 850 723.855 850 725.033C850 726.211 849.558 726.8 848.675 726.8C848.234 726.8 847.351 726.211 847.351 725.033Z" fill="white"/>
        <path opacity="0.7" d="M793.117 721.117C793.117 720.528 793.558 719.939 794 719.939C794.441 719.939 794.883 720.528 794.883 721.117C794.883 721.706 794.441 722.295 794 722.295C793.558 722.884 793.117 722.295 793.117 721.117Z" fill="white"/>
        <path opacity="0.7" d="M904.06 634.1C904.06 633.511 904.502 632.922 904.943 632.922C905.385 632.922 905.826 633.511 905.826 634.1C905.826 634.689 905.385 635.278 904.943 635.278C904.502 635.278 904.06 634.689 904.06 634.1Z" fill="white"/>
        <path opacity="0.7" d="M290.096 662.086C290.096 661.497 290.537 660.908 290.979 660.908C291.42 660.908 291.862 661.497 291.862 662.086C291.862 662.675 291.42 663.264 290.979 663.264C290.537 663.264 290.096 662.675 290.096 662.086Z" fill="white"/>
        <path opacity="0.7" d="M778.845 790.286C778.845 789.697 779.286 789.108 779.728 789.108C780.17 789.108 780.611 789.697 780.611 790.286C780.611 790.875 780.17 791.464 779.728 791.464C779.286 791.464 778.845 790.875 778.845 790.286Z" fill="white"/>
        <path opacity="0.7" d="M782.192 751.007C782.192 750.418 782.634 749.829 783.075 749.829C783.517 749.829 783.958 750.418 783.958 751.007C783.958 751.596 783.517 752.185 783.075 752.185C782.634 752.185 782.192 751.596 782.192 751.007Z" fill="white"/>
        <path opacity="0.7" d="M733.826 953.427C733.826 952.249 734.268 951.66 735.151 951.66C736.034 951.66 736.476 952.249 736.476 953.427C736.476 954.605 736.034 955.194 735.151 955.194C734.268 955.194 733.826 954.016 733.826 953.427Z" fill="white"/>
        <path opacity="0.7" d="M740.102 676.095C740.102 674.917 740.985 673.739 741.868 673.739C742.751 673.739 743.635 674.917 743.635 676.095C743.635 677.273 742.751 678.451 741.868 678.451C740.544 678.451 740.102 677.273 740.102 676.095Z" fill="white"/>
        <path opacity="0.7" d="M806.304 976.344C806.304 975.166 807.187 973.988 808.071 973.988C808.954 973.988 809.837 975.166 809.837 976.344C809.837 977.522 808.954 978.7 808.071 978.7C807.187 978.7 806.304 978.111 806.304 976.344Z" fill="white"/>
        <path opacity="0.7" d="M960.524 791.564C960.524 790.386 961.407 789.208 962.291 789.208C963.174 789.208 964.057 790.386 964.057 791.564C964.057 792.742 963.174 793.92 962.291 793.92C961.407 793.92 960.524 792.742 960.524 791.564Z" fill="white"/>
        <path opacity="0.7" d="M993.096 608.099C993.096 606.921 993.979 605.743 994.862 605.743C995.745 605.743 996.628 606.921 996.628 608.099C996.628 609.277 995.745 610.455 994.862 610.455C993.537 610.455 993.096 609.277 993.096 608.099Z" fill="white"/>
        <path opacity="0.7" d="M900.201 774.268C900.201 773.09 901.084 771.912 901.967 771.912C902.85 771.912 903.733 773.09 903.733 774.268C903.733 775.446 902.85 776.624 901.967 776.624C901.084 776.624 900.201 775.446 900.201 774.268Z" fill="white"/>
        <path opacity="0.7" d="M945.353 618.804C945.353 617.626 945.794 617.037 946.677 617.037C947.56 617.037 948.002 617.626 948.002 618.804C948.002 619.982 947.56 620.571 946.677 620.571C945.794 620.571 945.353 619.982 945.353 618.804Z" fill="white"/>
        <path opacity="0.7" d="M912.538 852.389C912.538 851.211 912.98 850.622 913.863 850.622C914.746 850.622 915.188 851.211 915.188 852.389C915.188 853.567 914.746 854.156 913.863 854.156C912.98 854.156 912.538 852.978 912.538 852.389Z" fill="white"/>
        <path opacity="0.7" d="M439.357 865.063C439.357 864.474 439.799 863.885 440.24 863.885C440.682 863.885 441.124 864.474 441.124 865.063C441.124 865.652 440.682 866.241 440.24 866.241C439.799 866.241 439.357 866.241 439.357 865.063Z" fill="white"/>
        <path opacity="0.7" d="M841.483 915.098C841.483 914.509 841.924 913.92 842.366 913.92C842.808 913.92 843.249 914.509 843.249 915.098C843.249 915.687 842.808 916.276 842.366 916.276C841.924 916.276 841.483 915.687 841.483 915.098Z" fill="white"/>
        <path opacity="0.7" d="M805.519 841.742C805.519 841.153 805.961 840.564 806.402 840.564C806.844 840.564 807.285 841.153 807.285 841.742C807.285 842.331 806.844 842.92 806.402 842.92C805.961 842.92 805.519 842.331 805.519 841.742Z" fill="white"/>
        <path opacity="0.7" d="M887.016 585.102C887.016 584.513 887.457 583.924 887.899 583.924C888.34 583.924 888.782 584.513 888.782 585.102C888.782 585.691 888.34 586.28 887.899 586.28C887.457 586.28 887.016 585.691 887.016 585.102Z" fill="white"/>
        <path opacity="0.7" d="M862.45 965.621C862.45 964.443 863.333 963.265 864.216 963.265C865.099 963.265 865.982 964.443 865.982 965.621C865.982 966.799 865.099 967.977 864.216 967.977C863.333 967.977 862.45 966.799 862.45 965.621Z" fill="white"/>
        <path opacity="0.7" d="M486.359 883.829C486.359 882.651 487.242 881.473 488.126 881.473C489.009 881.473 489.892 882.651 489.892 883.829C489.892 885.007 489.009 886.185 488.126 886.185C486.801 886.185 486.359 885.596 486.359 883.829Z" fill="white"/>
        <path opacity="0.7" d="M990.427 641.498C990.427 640.32 990.869 639.731 991.752 639.731C992.635 639.731 993.077 640.32 993.077 641.498C993.077 642.676 992.635 643.265 991.752 643.265C990.869 643.265 990.427 642.676 990.427 641.498Z" fill="white"/>
        <path opacity="0.7" d="M786.219 628.735C786.219 626.968 787.544 625.201 788.869 625.201C790.193 625.201 791.518 626.968 791.518 628.735C791.518 630.502 790.193 632.269 788.869 632.269C787.544 631.68 786.219 630.502 786.219 628.735Z" fill="white"/>
        <path opacity="0.7" d="M862.707 694.841C862.707 694.252 863.148 693.663 863.59 693.663C864.031 693.663 864.473 694.252 864.473 694.841C864.473 695.43 864.031 696.019 863.59 696.019C863.148 696.608 862.707 696.019 862.707 694.841Z" fill="white"/>
        <path opacity="0.7" d="M812.423 592.736C812.423 592.147 812.865 591.558 813.306 591.558C813.748 591.558 814.189 592.147 814.189 592.736C814.189 593.325 813.748 593.914 813.306 593.914C812.865 593.914 812.423 593.325 812.423 592.736Z" fill="white"/>
        <path opacity="0.7" d="M381.159 695.74C381.159 695.151 381.6 694.562 382.042 694.562C382.483 694.562 382.925 695.151 382.925 695.74C382.925 696.329 382.483 696.918 382.042 696.918C381.6 696.918 381.159 696.329 381.159 695.74Z" fill="white"/>
        <path opacity="0.7" d="M359.83 566.218C359.83 565.629 360.271 565.04 360.713 565.04C361.154 565.04 361.596 565.629 361.596 566.218C361.596 566.807 361.154 567.396 360.713 567.396C360.271 567.396 359.83 566.807 359.83 566.218Z" fill="white"/>
        <path opacity="0.7" d="M492.674 583.4C492.674 582.811 493.115 582.222 493.557 582.222C493.998 582.222 494.44 582.811 494.44 583.4C494.44 583.989 493.998 584.578 493.557 584.578C493.115 584.578 492.674 583.989 492.674 583.4Z" fill="white"/>
        <path opacity="0.7" d="M304.996 621.275C304.996 620.686 305.437 620.097 305.879 620.097C306.32 620.097 306.762 620.686 306.762 621.275C306.762 621.864 306.32 622.453 305.879 622.453C305.437 623.042 304.996 622.453 304.996 621.275Z" fill="white"/>
        <path opacity="0.7" d="M380.793 616.74C380.793 615.562 381.676 614.384 382.559 614.384C383.442 614.384 384.325 615.562 384.325 616.74C384.325 617.918 383.442 619.096 382.559 619.096C381.676 619.096 380.793 617.918 380.793 616.74Z" fill="white"/>
        <path opacity="0.7" d="M405.958 738.868C405.958 737.69 406.842 736.512 407.725 736.512C408.608 736.512 409.491 737.69 409.491 738.868C409.491 740.046 408.608 741.224 407.725 741.224C406.842 741.224 405.958 740.046 405.958 738.868Z" fill="white"/>
        <path opacity="0.7" d="M383.716 554.952C383.716 554.363 384.157 553.774 384.599 553.774C385.04 553.774 385.482 554.363 385.482 554.952C385.482 555.541 385.04 556.13 384.599 556.13C384.157 556.13 383.716 555.541 383.716 554.952Z" fill="white"/>
        <path opacity="0.7" d="M347.241 879.699C347.241 879.11 347.683 878.521 348.124 878.521C348.566 878.521 349.007 879.11 349.007 879.699C349.007 880.288 348.566 880.877 348.124 880.877C347.683 880.877 347.241 880.288 347.241 879.699Z" fill="white"/>
        <path opacity="0.7" d="M355.65 802.442C355.65 801.853 356.092 801.264 356.533 801.264C356.975 801.264 357.417 801.853 357.417 802.442C357.417 803.031 356.975 803.62 356.533 803.62C356.092 803.62 355.65 803.031 355.65 802.442Z" fill="white"/>
        <path opacity="0.7" d="M397.245 911.594C397.245 911.005 397.687 910.416 398.128 910.416C398.57 910.416 399.011 911.005 399.011 911.594C399.011 912.183 398.57 912.772 398.128 912.772C397.687 913.361 397.245 912.772 397.245 911.594Z" fill="white"/>
        <path opacity="0.7" d="M368.204 930.22C368.204 929.042 369.087 927.864 369.97 927.864C370.853 927.864 371.736 929.042 371.736 930.22C371.736 931.398 370.853 932.576 369.97 932.576C369.087 932.576 368.204 931.398 368.204 930.22Z" fill="white"/>
        <path opacity="0.7" d="M449.387 758.495C449.387 757.317 450.27 756.139 451.153 756.139C452.036 756.139 452.919 757.317 452.919 758.495C452.919 759.673 452.036 760.851 451.153 760.851C450.27 760.851 449.387 759.673 449.387 758.495Z" fill="white"/>
        <path opacity="0.7" d="M475.999 668.322C475.999 667.733 476.44 667.144 476.882 667.144C477.323 667.144 477.765 667.733 477.765 668.322C477.765 668.911 477.323 669.5 476.882 669.5C476.44 669.5 475.999 668.911 475.999 668.322Z" fill="white"/>
        <path opacity="0.7" d="M963.612 593.569C963.612 592.391 964.053 591.802 964.936 591.802C965.819 591.802 966.261 592.391 966.261 593.569C966.261 594.747 965.819 595.336 964.936 595.336C964.053 595.336 963.612 594.747 963.612 593.569Z" fill="white"/>
        <path opacity="0.7" d="M610.633 706.994C610.633 705.227 611.957 703.46 613.282 703.46C614.607 703.46 615.931 705.227 615.931 706.994C615.931 708.761 614.607 710.528 613.282 710.528C611.957 709.939 610.633 708.761 610.633 706.994Z" fill="white"/>
        <path opacity="0.7" d="M641.286 714.372C641.286 713.783 641.728 713.194 642.169 713.194C642.611 713.194 643.052 713.783 643.052 714.372C643.052 714.961 642.611 715.55 642.169 715.55C641.728 715.55 641.286 714.961 641.286 714.372Z" fill="white"/>
        <path opacity="0.7" d="M689.89 858.235C689.89 857.646 690.331 857.057 690.773 857.057C691.214 857.057 691.656 857.646 691.656 858.235C691.656 858.824 691.214 859.412 690.773 859.412C690.331 860.001 689.89 859.413 689.89 858.235Z" fill="white"/>
        <path opacity="0.7" d="M619.518 584.818C619.518 584.229 619.96 583.64 620.401 583.64C620.843 583.64 621.284 584.229 621.284 584.818C621.284 585.407 620.843 585.996 620.401 585.996C619.96 585.996 619.518 585.407 619.518 584.818Z" fill="white"/>
        <path opacity="0.7" d="M669.504 617.3C669.504 616.711 669.945 616.122 670.387 616.122C670.828 616.122 671.27 616.711 671.27 617.3C671.27 617.889 670.828 618.478 670.387 618.478C669.945 618.478 669.504 617.889 669.504 617.3Z" fill="white"/>
        <path opacity="0.7" d="M554.603 560.704C554.603 560.115 555.044 559.526 555.486 559.526C555.927 559.526 556.369 560.115 556.369 560.704C556.369 561.293 555.927 561.882 555.486 561.882C555.044 561.882 554.603 561.293 554.603 560.704Z" fill="white"/>
        <path opacity="0.7" d="M692.175 647.236C692.175 646.647 692.616 646.058 693.058 646.058C693.499 646.058 693.941 646.647 693.941 647.236C693.941 647.825 693.499 648.414 693.058 648.414C692.616 649.003 692.175 648.414 692.175 647.236Z" fill="white"/>
        <path opacity="0.7" d="M547.635 734.207C547.635 733.618 548.077 733.029 548.518 733.029C548.96 733.029 549.401 733.618 549.401 734.207C549.401 734.796 548.96 735.385 548.518 735.385C548.077 735.385 547.635 734.796 547.635 734.207Z" fill="white"/>
        <path opacity="0.7" d="M645.585 772.484C645.585 771.895 646.027 771.306 646.468 771.306C646.91 771.306 647.351 771.895 647.351 772.484C647.351 773.073 646.91 773.662 646.468 773.662C646.027 773.662 645.585 773.073 645.585 772.484Z" fill="white"/>
        <path opacity="0.7" d="M757.011 717.416C757.011 716.238 757.894 715.06 758.777 715.06C759.66 715.06 760.543 716.238 760.543 717.416C760.543 718.593 759.66 719.771 758.777 719.771C757.894 719.771 757.011 718.593 757.011 717.416Z" fill="white"/>
        <path opacity="0.7" d="M737.66 747.88C737.66 746.702 738.543 745.524 739.426 745.524C740.309 745.524 741.192 746.702 741.192 747.88C741.192 749.058 740.309 750.236 739.426 750.236C738.543 750.236 737.66 749.058 737.66 747.88Z" fill="white"/>
        <path opacity="0.7" d="M758.539 591.298C758.539 590.12 759.422 588.942 760.305 588.942C761.188 588.942 762.071 590.12 762.071 591.298C762.071 592.476 761.188 593.654 760.305 593.654C759.422 593.654 758.539 592.476 758.539 591.298Z" fill="white"/>
        <path opacity="0.7" d="M666.087 757.5C666.087 756.322 666.97 755.144 667.853 755.144C668.737 755.144 669.62 756.322 669.62 757.5C669.62 758.677 668.737 759.855 667.853 759.855C666.97 759.855 666.087 758.677 666.087 757.5Z" fill="white"/>
        <path opacity="0.7" d="M710.799 602.005C710.799 600.827 711.241 600.238 712.124 600.238C713.007 600.238 713.448 600.827 713.448 602.005C713.448 603.182 713.007 603.771 712.124 603.771C711.241 603.771 710.799 603.182 710.799 602.005Z" fill="white"/>
        <path opacity="0.7" d="M579.78 660.547C579.78 658.78 581.105 657.013 582.429 657.013C583.754 657.013 585.078 658.78 585.078 660.547C585.078 662.314 583.754 664.081 582.429 664.081C580.663 664.081 579.78 662.903 579.78 660.547Z" fill="white"/>
        <path opacity="0.7" d="M700.617 789.432C700.617 788.254 701.058 787.665 701.942 787.665C702.825 787.665 703.266 788.254 703.266 789.432C703.266 790.61 702.825 791.199 701.942 791.199C701.5 791.199 700.617 790.61 700.617 789.432Z" fill="white"/>
        <path opacity="0.7" d="M717.232 981.11C717.232 980.521 717.674 979.932 718.115 979.932C718.557 979.932 718.998 980.521 718.998 981.11C718.998 981.698 718.557 982.287 718.115 982.287C717.674 982.876 717.232 982.287 717.232 981.11Z" fill="white"/>
        <path opacity="0.7" d="M721.248 859.3C721.248 858.711 721.689 858.122 722.131 858.122C722.572 858.122 723.014 858.711 723.014 859.3C723.014 859.889 722.572 860.478 722.131 860.478C721.689 860.478 721.248 859.889 721.248 859.3Z" fill="white"/>
        <path opacity="0.7" d="M606.929 898.299C606.929 897.71 607.371 897.121 607.812 897.121C608.254 897.121 608.696 897.71 608.696 898.299C608.696 898.888 608.254 899.477 607.812 899.477C607.371 899.477 606.929 898.888 606.929 898.299Z" fill="white"/>
        <path opacity="0.7" d="M615.335 821.043C615.335 820.454 615.777 819.865 616.218 819.865C616.66 819.865 617.101 820.454 617.101 821.043C617.101 821.632 616.66 822.221 616.218 822.221C615.777 822.221 615.335 821.632 615.335 821.043Z" fill="white"/>
        <path opacity="0.7" d="M656.934 930.194C656.934 929.605 657.375 929.016 657.817 929.016C658.258 929.016 658.7 929.605 658.7 930.194C658.7 930.782 658.258 931.371 657.817 931.371C657.375 931.96 656.934 931.371 656.934 930.194Z" fill="white"/>
        <path opacity="0.7" d="M571.845 823.764C571.357 823.764 570.962 824.292 570.962 824.942C570.962 825.593 571.357 826.12 571.845 826.12C572.333 826.12 572.728 825.593 572.728 824.942C572.728 824.292 572.333 823.764 571.845 823.764Z" fill="white"/>
        <path opacity="0.7" d="M679.147 960.686C679.147 960.097 679.589 959.508 680.03 959.508C680.472 959.508 680.913 960.097 680.913 960.686C680.913 961.275 680.472 961.864 680.03 961.864C679.589 961.864 679.147 961.275 679.147 960.686Z" fill="white"/>
        <path opacity="0.7" d="M973.561 995.466C973.561 993.699 974.886 991.932 976.21 991.932C977.535 991.932 978.859 993.699 978.859 995.466C978.859 997.233 977.535 999 976.21 999C974.444 999 973.561 997.233 973.561 995.466Z" fill="white"/>
        <path opacity="0.7" d="M628.332 948.852C628.332 947.674 629.215 946.496 630.098 946.496C630.981 946.496 631.865 947.674 631.865 948.852C631.865 950.03 630.981 951.208 630.098 951.208C629.215 951.208 628.332 950.03 628.332 948.852Z" fill="white"/>
        <path opacity="0.7" d="M648.308 825.828C648.308 824.65 649.191 823.472 650.074 823.472C650.957 823.472 651.84 824.65 651.84 825.828C651.84 827.006 650.957 828.184 650.074 828.184C648.749 828.184 648.308 827.006 648.308 825.828Z" fill="white"/>
        <path opacity="0.7" d="M676.597 859.115C676.597 857.937 677.48 856.759 678.363 856.759C679.246 856.759 680.129 857.937 680.129 859.115C680.129 860.293 679.246 861.471 678.363 861.471C677.038 861.471 676.597 860.882 676.597 859.115Z" fill="white"/>
        <path opacity="0.7" d="M745.973 904.192C745.973 903.014 746.856 901.836 747.739 901.836C748.623 901.836 749.506 903.014 749.506 904.192C749.506 905.37 748.623 906.548 747.739 906.548C746.856 906.548 745.973 905.959 745.973 904.192Z" fill="white"/>
        <path opacity="0.7" d="M698.21 915.487C698.21 914.309 698.652 913.72 699.535 913.72C700.418 913.72 700.859 914.309 700.859 915.487C700.859 916.665 700.418 917.254 699.535 917.254C698.652 917.254 698.21 916.076 698.21 915.487Z" fill="white"/>
        <path opacity="0.7" d="M724.072 832.991C724.072 831.813 724.514 831.224 725.397 831.224C726.28 831.224 726.721 831.813 726.721 832.991C726.721 834.169 726.28 834.758 725.397 834.758C724.955 834.758 724.072 834.169 724.072 832.991Z" fill="white"/>
        <path opacity="0.7" d="M643.544 867.333C643.544 866.155 643.986 865.566 644.869 865.566C645.752 865.566 646.193 866.155 646.193 867.333C646.193 868.511 645.752 869.1 644.869 869.1C644.427 869.1 643.544 868.511 643.544 867.333Z" fill="white"/>
        <path opacity="0.7" d="M753.745 842.88C753.745 841.113 755.07 839.346 756.394 839.346C757.719 839.346 759.043 841.113 759.043 842.88C759.043 844.647 757.719 846.414 756.394 846.414C754.628 846.414 753.745 844.647 753.745 842.88Z" fill="white"/>
        <path opacity="0.7" d="M632.201 632.324C632.201 631.735 632.643 631.146 633.084 631.146C633.526 631.146 633.968 631.735 633.968 632.324C633.968 632.913 633.526 633.502 633.084 633.502C632.643 633.502 632.201 632.913 632.201 632.324Z" fill="white"/>
        <path opacity="0.7" d="M729.498 576.8C729.498 575.622 729.939 575.033 730.822 575.033C731.705 575.033 732.147 575.622 732.147 576.8C732.147 577.978 731.705 578.567 730.822 578.567C729.939 578.567 729.498 577.978 729.498 576.8Z" fill="white"/>
        <path opacity="0.7" d="M581.759 919.501C581.759 918.912 582.201 918.323 582.642 918.323C583.084 918.323 583.525 918.912 583.525 919.501C583.525 920.09 583.084 920.679 582.642 920.679C582.201 920.679 581.759 920.09 581.759 919.501Z" fill="white"/>
        <path opacity="0.7" d="M598.169 775.112C598.169 773.345 599.494 771.578 600.818 771.578C602.143 771.578 603.467 773.345 603.467 775.112C603.467 776.879 602.143 778.646 600.818 778.646C599.494 778.646 598.169 776.879 598.169 775.112Z" fill="white"/>
        <path opacity="0.7" d="M571.307 827.39C571.307 826.212 572.19 825.034 573.073 825.034C573.956 825.034 574.839 826.212 574.839 827.39C574.839 828.568 573.956 829.746 573.073 829.746C571.749 829.746 571.307 828.568 571.307 827.39Z" fill="white"/>
        <path opacity="0.7" d="M537.226 916.374C537.226 915.197 538.109 914.019 538.992 914.019C539.876 914.019 540.759 915.197 540.759 916.374C540.759 917.552 539.876 918.73 538.992 918.73C537.668 918.73 537.226 917.552 537.226 916.374Z" fill="white"/>
        <path opacity="0.7" d="M558.129 759.206C558.129 758.028 559.012 756.85 559.895 756.85C560.778 756.85 561.661 758.028 561.661 759.206C561.661 760.384 560.778 761.562 559.895 761.562C559.012 761.562 558.129 760.384 558.129 759.206Z" fill="white"/>
        <path opacity="0.7" d="M528.621 745.262C528.621 744.084 529.063 743.495 529.946 743.495C530.829 743.495 531.27 744.084 531.27 745.262C531.27 746.44 530.829 747.029 529.946 747.029C529.504 747.029 528.621 745.851 528.621 745.262Z" fill="white"/>
        <path opacity="0.7" d="M397.588 804.141C397.588 804.73 397.147 805.319 396.705 805.319C396.264 805.319 395.822 804.73 395.822 804.141C395.822 803.552 396.264 802.963 396.705 802.963C397.147 802.374 397.588 802.963 397.588 804.141Z" fill="white"/>
        <path opacity="0.7" d="M418.911 933.662C418.911 934.251 418.47 934.84 418.028 934.84C417.587 934.84 417.145 934.251 417.145 933.662C417.145 933.073 417.587 932.484 418.028 932.484C418.47 932.484 418.911 932.484 418.911 933.662Z" fill="white"/>
        <path opacity="0.7" d="M491.258 783.717C491.258 784.306 490.816 784.895 490.375 784.895C489.933 784.895 489.492 784.306 489.492 783.717C489.492 783.128 489.933 782.539 490.375 782.539C490.816 782.539 491.258 783.128 491.258 783.717Z" fill="white"/>
        <path opacity="0.7" d="M474.405 928.073C474.405 929.84 473.08 931.607 471.755 931.607C470.431 931.607 469.106 929.84 469.106 928.073C469.106 926.307 470.431 924.54 471.755 924.54C473.08 924.54 474.405 926.307 474.405 928.073Z" fill="white"/>
        <path opacity="0.7" d="M397.969 882.553C397.969 883.731 397.086 884.909 396.203 884.909C395.32 884.909 394.437 883.731 394.437 882.553C394.437 881.375 395.32 880.197 396.203 880.197C397.086 880.197 397.969 881.375 397.969 882.553Z" fill="white"/>
        <path opacity="0.7" d="M423.115 696.849C423.115 697.438 422.674 698.027 422.232 698.027C421.791 698.027 421.349 697.438 421.349 696.849C421.349 696.26 421.791 695.671 422.232 695.671C422.674 695.671 423.115 696.26 423.115 696.849Z" fill="white"/>
        <path opacity="0.7" d="M410.535 569.66C410.535 570.838 409.652 572.016 408.769 572.016C407.886 572.016 407.003 570.838 407.003 569.66C407.003 568.482 407.886 567.304 408.769 567.304C409.652 567.304 410.535 567.893 410.535 569.66Z" fill="white"/>
        <path opacity="0.7" d="M805.112 928.883C805.112 929.472 804.67 930.061 804.229 930.061C803.787 930.061 803.346 929.472 803.346 928.883C803.346 928.294 803.787 927.705 804.229 927.705C804.67 927.705 805.112 928.294 805.112 928.883Z" fill="white"/>
        <path opacity="0.7" d="M474.82 862.695C474.82 863.873 473.937 865.051 473.054 865.051C472.171 865.051 471.288 863.873 471.288 862.695C471.288 861.517 472.171 860.339 473.054 860.339C473.937 860.339 474.82 861.517 474.82 862.695Z" fill="white"/>
        <path opacity="0.7" d="M514.446 943.982C514.446 945.16 513.563 946.338 512.68 946.338C511.797 946.338 510.914 945.16 510.914 943.982C510.914 942.804 511.797 941.626 512.68 941.626C513.563 941.626 514.446 942.804 514.446 943.982Z" fill="white"/>
        <path opacity="0.7" d="M527.035 630.5C527.035 631.678 526.152 632.855 525.269 632.855C524.386 632.855 523.503 631.678 523.503 630.5C523.503 629.322 524.386 628.144 525.269 628.144C526.594 628.144 527.035 629.322 527.035 630.5Z" fill="white"/>
        <path opacity="0.7" d="M519.265 691.813C519.265 693.58 517.94 695.347 516.615 695.347C515.291 695.347 513.966 693.58 513.966 691.813C513.966 690.046 515.291 688.279 516.615 688.279C518.382 688.868 519.265 690.046 519.265 691.813Z" fill="white"/>
        <path opacity="0.7" d="M190.417 677.981C190.417 676.803 190.858 676.214 191.741 676.214C192.624 676.214 193.066 676.803 193.066 677.981C193.066 679.159 192.624 679.748 191.741 679.748C191.3 679.748 190.417 679.159 190.417 677.981Z" fill="white"/>
        <path opacity="0.7" d="M218.466 684.088C218.466 683.499 218.908 682.91 219.349 682.91C219.791 682.91 220.232 683.499 220.232 684.088C220.232 684.677 219.791 685.266 219.349 685.266C218.908 685.266 218.466 684.677 218.466 684.088Z" fill="white"/>
        <path opacity="0.7" d="M136.182 674.065C136.182 673.476 136.624 672.887 137.065 672.887C137.507 672.887 137.948 673.476 137.948 674.065C137.948 674.654 137.507 675.243 137.065 675.243C136.624 675.832 136.182 675.243 136.182 674.065Z" fill="white"/>
        <path opacity="0.7" d="M197.138 554.565C197.138 553.976 197.58 553.387 198.021 553.387C198.463 553.387 198.904 553.976 198.904 554.565C198.904 555.154 198.463 555.743 198.021 555.743C197.58 555.743 197.138 555.154 197.138 554.565Z" fill="white"/>
        <path opacity="0.7" d="M878.477 907.722C878.477 907.133 878.918 906.544 879.36 906.544C879.801 906.544 880.243 907.133 880.243 907.722C880.243 908.311 879.801 908.9 879.36 908.9C878.918 909.489 878.477 908.9 878.477 907.722Z" fill="white"/>
        <path opacity="0.7" d="M29.5387 621.009C29.5387 620.42 29.9802 619.831 30.4217 619.831C30.8632 619.831 31.3047 620.42 31.3047 621.009C31.3047 621.598 30.8632 622.187 30.4217 622.187C29.9802 622.776 29.5387 622.187 29.5387 621.009Z" fill="white"/>
        <path opacity="0.7" d="M125.259 703.955C125.259 703.366 125.701 702.777 126.142 702.777C126.584 702.777 127.025 703.366 127.025 703.955C127.025 704.544 126.584 705.133 126.142 705.133C125.701 705.133 125.259 704.544 125.259 703.955Z" fill="white"/>
        <path opacity="0.7" d="M222.765 742.2C222.765 741.611 223.207 741.022 223.648 741.022C224.09 741.022 224.531 741.611 224.531 742.2C224.531 742.789 224.09 743.378 223.648 743.378C223.207 743.378 222.765 742.789 222.765 742.2Z" fill="white"/>
        <path opacity="0.7" d="M242.244 664.588C242.244 663.41 242.686 662.821 243.569 662.821C244.452 662.821 244.893 663.41 244.893 664.588C244.893 665.766 244.452 666.355 243.569 666.355C243.127 666.355 242.244 665.766 242.244 664.588Z" fill="white"/>
        <path opacity="0.7" d="M995.042 945.099C995.042 943.332 996.366 941.565 997.691 941.565C999.015 941.565 1000.34 943.332 1000.34 945.099C1000.34 946.866 999.015 948.633 997.691 948.633C995.925 948.044 995.042 946.866 995.042 945.099Z" fill="white"/>
        <path opacity="0.7" d="M314.84 717.596C314.84 716.418 315.723 715.24 316.606 715.24C317.489 715.24 318.372 716.418 318.372 717.596C318.372 718.774 317.489 719.952 316.606 719.952C315.723 719.952 314.84 718.774 314.84 717.596Z" fill="white"/>
        <path opacity="0.7" d="M243.267 727.215C243.267 726.037 244.15 724.859 245.033 724.859C245.916 724.859 246.799 726.037 246.799 727.215C246.799 728.393 245.916 729.571 245.033 729.571C244.15 729.571 243.267 728.393 243.267 727.215Z" fill="white"/>
        <path opacity="0.7" d="M294.856 950.857C294.856 950.268 295.297 949.679 295.739 949.679C296.18 949.679 296.622 950.268 296.622 950.857C296.622 951.446 296.18 952.035 295.739 952.035C295.297 952.624 294.856 952.035 294.856 950.857Z" fill="white"/>
        <path opacity="0.7" d="M113.594 884.2C113.594 883.611 114.036 883.022 114.477 883.022C114.919 883.022 115.36 883.611 115.36 884.2C115.36 884.789 114.919 885.378 114.477 885.378C114.036 885.967 113.594 885.378 113.594 884.2Z" fill="white"/>
        <path opacity="0.7" d="M184.549 868.047C184.549 867.458 184.991 866.869 185.432 866.869C185.874 866.869 186.315 867.458 186.315 868.047C186.315 868.636 185.874 869.225 185.432 869.225C184.991 869.225 184.549 868.636 184.549 868.047Z" fill="white"/>
        <path opacity="0.7" d="M192.958 790.79C192.958 790.201 193.399 789.612 193.841 789.612C194.282 789.612 194.724 790.201 194.724 790.79C194.724 791.379 194.282 791.968 193.841 791.968C193.399 791.968 192.958 791.379 192.958 790.79Z" fill="white"/>
        <path opacity="0.7" d="M234.557 899.941C234.557 899.352 234.998 898.763 235.44 898.763C235.881 898.763 236.323 899.352 236.323 899.941C236.323 900.53 235.881 901.119 235.44 901.119C234.998 901.708 234.557 901.119 234.557 899.941Z" fill="white"/>
        <path opacity="0.7" d="M148.585 794.69C148.585 794.101 149.027 793.512 149.468 793.512C149.91 793.512 150.351 794.101 150.351 794.69C150.351 795.279 149.91 795.868 149.468 795.868C149.027 795.868 148.585 795.279 148.585 794.69Z" fill="white"/>
        <path opacity="0.7" d="M256.771 930.434C256.771 929.845 257.213 929.256 257.654 929.256C258.096 929.256 258.537 929.845 258.537 930.434C258.537 931.023 258.096 931.612 257.654 931.612C257.213 931.612 256.771 931.023 256.771 930.434Z" fill="white"/>
        <path opacity="0.7" d="M205.516 918.568C205.516 917.39 206.399 916.212 207.282 916.212C208.166 916.212 209.049 917.39 209.049 918.568C209.049 919.746 208.166 920.924 207.282 920.924C206.399 920.924 205.516 919.746 205.516 918.568Z" fill="white"/>
        <path opacity="0.7" d="M225.488 795.543C225.488 794.365 226.371 793.187 227.254 793.187C228.137 793.187 229.02 794.365 229.02 795.543C229.02 796.721 228.137 797.899 227.254 797.899C226.371 797.899 225.488 796.721 225.488 795.543Z" fill="white"/>
        <path opacity="0.7" d="M253.777 828.831C253.777 827.653 254.66 826.475 255.543 826.475C256.426 826.475 257.309 827.653 257.309 828.831C257.309 830.009 256.426 831.187 255.543 831.187C254.66 831.187 253.777 830.598 253.777 828.831Z" fill="white"/>
        <path opacity="0.7" d="M323.157 873.909C323.157 872.731 324.04 871.553 324.923 871.553C325.806 871.553 326.689 872.731 326.689 873.909C326.689 875.087 325.806 876.265 324.923 876.265C324.04 876.265 323.157 875.676 323.157 873.909Z" fill="white"/>
        <path opacity="0.7" d="M275.829 885.234C275.829 884.056 276.271 883.467 277.154 883.467C278.037 883.467 278.479 884.056 278.479 885.234C278.479 886.412 278.037 887.001 277.154 887.001C276.271 887.001 275.829 885.823 275.829 885.234Z" fill="white"/>
        <path opacity="0.7" d="M205.773 647.789C205.773 647.2 206.215 646.611 206.656 646.611C207.098 646.611 207.539 647.2 207.539 647.789C207.539 648.378 207.098 648.967 206.656 648.967C206.215 649.556 205.773 648.967 205.773 647.789Z" fill="white"/>
        <path opacity="0.7" d="M468.51 623.611C468.51 622.433 469.393 621.255 470.276 621.255C471.159 621.255 472.042 622.433 472.042 623.611C472.042 624.789 471.159 625.967 470.276 625.967C469.393 625.967 468.51 625.378 468.51 623.611Z" fill="white"/>
        <path opacity="0.7" d="M127.179 546.015C127.179 545.426 127.621 544.837 128.062 544.837C128.504 544.837 128.946 545.426 128.946 546.015C128.946 546.604 128.504 547.193 128.062 547.193C127.621 547.193 127.179 546.604 127.179 546.015Z" fill="white"/>
        <path opacity="0.7" d="M306.677 546.516C306.677 545.338 307.119 544.749 308.002 544.749C308.885 544.749 309.326 545.338 309.326 546.516C309.326 547.694 308.885 548.283 308.002 548.283C307.119 548.283 306.677 547.694 306.677 546.516Z" fill="white"/>
        <path opacity="0.7" d="M32.9559 811.182C32.9559 810.593 33.3975 810.004 33.8391 810.004C34.2806 810.004 34.7222 810.593 34.7222 811.182C34.7222 811.771 34.2806 812.36 33.8391 812.36C33.3975 812.949 32.9559 812.36 32.9559 811.182Z" fill="white"/>
        <path opacity="0.7" d="M12.5699 570.248C12.5699 569.659 13.0114 569.07 13.4529 569.07C13.8944 569.07 14.3359 569.659 14.3359 570.248C14.3359 570.837 13.8944 571.426 13.4529 571.426C13.0114 571.426 12.5699 570.837 12.5699 570.248Z" fill="white"/>
        <path opacity="0.7" d="M100.077 670.364C100.077 669.186 100.96 668.008 101.843 668.008C102.726 668.008 103.609 669.186 103.609 670.364C103.609 671.542 102.726 672.72 101.843 672.72C100.96 672.72 100.077 671.542 100.077 670.364Z" fill="white"/>
        <path opacity="0.7" d="M80.7263 700.828C80.7263 699.65 81.6094 698.472 82.4924 698.472C83.3755 698.472 84.2585 699.65 84.2585 700.828C84.2585 702.006 83.3755 703.184 82.4924 703.184C81.1679 703.184 80.7263 702.006 80.7263 700.828Z" fill="white"/>
        <path opacity="0.7" d="M101.605 544.246C101.605 543.068 102.488 541.89 103.371 541.89C104.254 541.89 105.137 543.068 105.137 544.246C105.137 545.424 104.254 546.602 103.371 546.602C102.488 546.602 101.605 545.424 101.605 544.246Z" fill="white"/>
        <path opacity="0.7" d="M9.15298 710.448C9.15298 709.27 10.036 708.092 10.919 708.092C11.8021 708.092 12.6851 709.27 12.6851 710.448C12.6851 711.626 11.8021 712.804 10.919 712.804C9.59447 712.804 9.15298 711.626 9.15298 710.448Z" fill="white"/>
        <path opacity="0.7" d="M53.8648 554.952C53.8648 553.774 54.3064 553.185 55.1894 553.185C56.0724 553.185 56.5139 553.774 56.5139 554.952C56.5139 556.13 56.0724 556.719 55.1894 556.719C54.3064 556.719 53.8648 556.13 53.8648 554.952Z" fill="white"/>
        <path opacity="0.7" d="M43.6828 742.38C43.6828 741.203 44.1244 740.614 45.0074 740.614C45.8905 740.614 46.332 741.203 46.332 742.38C46.332 743.558 45.8905 744.147 45.0074 744.147C44.1244 744.147 43.6828 743.558 43.6828 742.38Z" fill="white"/>
        <path opacity="0.7" d="M60.2986 934.057C60.2986 933.468 60.7401 932.879 61.1816 932.879C61.6231 932.879 62.0647 933.468 62.0647 934.057C62.0647 934.646 61.6231 935.235 61.1816 935.235C60.7401 935.824 60.2986 935.235 60.2986 934.057Z" fill="white"/>
        <path opacity="0.7" d="M-0.000167847 883.141C-0.000167847 882.552 0.441335 881.963 0.882851 881.963C1.32437 881.963 1.76587 882.552 1.76587 883.141C1.76587 883.73 1.32437 884.319 0.882851 884.319C0.441335 884.908 -0.000167847 884.319 -0.000167847 883.141Z" fill="white"/>
        <path opacity="0.7" d="M22.2138 913.635C22.2138 913.046 22.6554 912.457 23.0969 912.457C23.5385 912.457 23.98 913.046 23.98 913.635C23.98 914.224 23.5385 914.812 23.0969 914.812C22.6554 914.812 22.2138 914.224 22.2138 913.635Z" fill="white"/>
        <path opacity="0.7" d="M578.281 609.713C578.281 607.946 579.606 606.179 580.931 606.179C582.255 606.179 583.58 607.946 583.58 609.713C583.58 611.48 582.255 613.247 580.931 613.247C579.165 612.658 578.281 611.48 578.281 609.713Z" fill="white"/>
        <g opacity="0.7">
            <path opacity="0.7" d="M518.449 868.876L518.008 856.507L508.294 855.329L517.566 854.74L518.449 841.782L519.332 854.74L528.604 855.329L519.332 856.507L518.449 868.876Z" fill="white"/>
            <path opacity="0.7" d="M514.476 861.219L517.567 855.918L514.476 850.028L518.45 854.74L522.865 849.439L519.333 855.329L522.865 861.219L518.45 856.507L514.476 861.219Z" fill="white"/>
        </g>
        <g opacity="0.7">
            <path opacity="0.7" d="M617.517 901.335L616.634 888.966L607.362 887.788L616.634 887.199L617.517 874.241L618.4 887.199L627.672 887.788L618.4 888.966L617.517 901.335Z" fill="white"/>
            <path opacity="0.7" d="M613.544 893.678L616.635 887.788L613.544 882.487L617.518 886.61L621.933 881.898L617.959 887.788L621.933 893.089L617.518 888.966L613.544 893.678Z" fill="white"/>
        </g>
        <g opacity="0.7">
            <path opacity="0.7" d="M566.459 572.093L566.018 563.847L559.395 562.669H566.018L566.459 553.245L566.901 562.669H573.524L566.901 563.847L566.459 572.093Z" fill="white"/>
            <path opacity="0.7" d="M563.809 566.792L566.016 563.258L563.809 559.135L566.458 562.669L569.549 559.135L566.899 563.258L569.549 566.792L566.458 563.847L563.809 566.792Z" fill="white"/>
        </g>
        <g opacity="0.7">
            <path opacity="0.7" d="M772.745 929.564L772.303 921.319L765.68 920.141H771.862L772.745 910.717L773.186 920.141H779.809L773.186 921.319L772.745 929.564Z" fill="white"/>
            <path opacity="0.7" d="M769.653 924.264L771.86 920.73L769.653 916.607L772.743 919.552L775.834 916.607L773.185 920.141L775.834 924.264L772.743 921.319L769.653 924.264Z" fill="white"/>
        </g>
        <g opacity="0.7">
            <path opacity="0.7" d="M362.334 909.607L361.893 901.362L355.27 900.184H361.893L362.334 890.76L362.776 900.184H369.399L362.776 901.362L362.334 909.607Z" fill="white"/>
            <path opacity="0.7" d="M359.242 904.307L361.891 900.773L359.242 896.65L362.333 899.595L365.424 896.65L362.774 900.184L365.424 904.307L362.333 901.362L359.242 904.307Z" fill="white"/>
        </g>
        <g opacity="0.7">
            <path opacity="0.7" d="M186.085 579.054L185.202 567.274L175.93 565.507H185.202L186.085 551.96L186.968 565.507H196.24L186.968 567.274L186.085 579.054Z" fill="white"/>
            <path opacity="0.7" d="M182.112 571.986L185.203 566.096L182.112 560.206L186.086 564.918L190.501 560.206L186.528 566.096L190.501 571.397L186.086 567.274L182.112 571.986Z" fill="white"/>
        </g>
        <g opacity="0.7">
            <path opacity="0.7" d="M109.636 882.069L109.195 873.823L102.572 872.645H109.195L109.636 863.222L110.078 872.645H116.701L110.078 873.823L109.636 882.069Z" fill="white"/>
            <path opacity="0.7" d="M106.986 876.769L109.194 873.235L106.986 869.112L109.635 872.057L112.726 869.112L110.077 872.646L112.726 876.769L109.635 873.824L106.986 876.769Z" fill="white"/>
        </g>
        <g opacity="0.7">
            <path opacity="0.7" d="M258.149 696.29L257.707 687.455L251.084 686.866L257.707 686.277L258.149 677.442L258.59 686.277L265.213 686.866L258.59 687.455L258.149 696.29Z" fill="white"/>
            <path opacity="0.7" d="M255.498 690.989L257.706 686.866L255.498 682.743L258.147 686.277L261.238 682.743L258.589 686.866L261.238 690.4L258.147 687.455L255.498 690.989Z" fill="white"/>
        </g>
        <g opacity="0.7">
            <path opacity="0.7" d="M353.816 648.287L353.375 639.452L346.752 638.863L353.375 638.274L353.816 629.439L354.258 638.274L360.881 638.863L354.258 639.452L353.816 648.287Z" fill="white"/>
            <path opacity="0.7" d="M351.166 642.986L353.374 638.863L351.166 634.74L353.815 638.274L356.906 634.74L354.257 638.863L356.906 642.397L353.815 639.452L351.166 642.986Z" fill="white"/>
        </g>
        <path opacity="0.7" d="M847.351 499.858C847.351 498.68 847.792 498.091 848.675 498.091C849.558 498.091 850 498.68 850 499.858C850 501.036 849.558 501.625 848.675 501.625C848.234 501.625 847.351 501.036 847.351 499.858Z" fill="white"/>
        <path opacity="0.7" d="M793.117 495.942C793.117 495.353 793.558 494.764 794 494.764C794.441 494.764 794.883 495.353 794.883 495.942C794.883 496.531 794.441 497.12 794 497.12C793.558 497.709 793.117 497.12 793.117 495.942Z" fill="white"/>
        <path opacity="0.7" d="M290.096 436.91C290.096 436.321 290.537 435.732 290.979 435.732C291.42 435.732 291.862 436.321 291.862 436.91C291.862 437.499 291.42 438.088 290.979 438.088C290.537 438.088 290.096 437.499 290.096 436.91Z" fill="white"/>
        <path opacity="0.7" d="M782.192 525.831C782.192 525.242 782.634 524.653 783.075 524.653C783.517 524.653 783.958 525.242 783.958 525.831C783.958 526.42 783.517 527.009 783.075 527.009C782.634 527.009 782.192 526.42 782.192 525.831Z" fill="white"/>
        <path opacity="0.7" d="M740.102 450.919C740.102 449.741 740.985 448.563 741.868 448.563C742.751 448.563 743.635 449.741 743.635 450.919C743.635 452.097 742.751 453.275 741.868 453.275C740.544 453.275 740.102 452.097 740.102 450.919Z" fill="white"/>
        <path opacity="0.7" d="M900.201 549.092C900.201 547.914 901.084 546.736 901.967 546.736C902.85 546.736 903.733 547.914 903.733 549.092C903.733 550.27 902.85 551.448 901.967 551.448C901.084 551.448 900.201 550.27 900.201 549.092Z" fill="white"/>
        <path opacity="0.7" d="M862.707 469.666C862.707 469.077 863.148 468.488 863.59 468.488C864.031 468.488 864.473 469.077 864.473 469.666C864.473 470.255 864.031 470.844 863.59 470.844C863.148 471.433 862.707 470.844 862.707 469.666Z" fill="white"/>
        <path opacity="0.7" d="M381.159 470.564C381.159 469.975 381.6 469.386 382.042 469.386C382.483 469.386 382.925 469.975 382.925 470.564C382.925 471.153 382.483 471.742 382.042 471.742C381.6 471.742 381.159 471.153 381.159 470.564Z" fill="white"/>
        <path opacity="0.7" d="M405.958 513.693C405.958 512.515 406.842 511.337 407.725 511.337C408.608 511.337 409.491 512.515 409.491 513.693C409.491 514.871 408.608 516.049 407.725 516.049C406.842 516.049 405.958 514.871 405.958 513.693Z" fill="white"/>
        <path opacity="0.7" d="M449.387 533.319C449.387 532.141 450.27 530.963 451.153 530.963C452.036 530.963 452.919 532.141 452.919 533.319C452.919 534.497 452.036 535.675 451.153 535.675C450.27 535.675 449.387 534.497 449.387 533.319Z" fill="white"/>
        <path opacity="0.7" d="M475.999 443.146C475.999 442.557 476.44 441.968 476.882 441.968C477.323 441.968 477.765 442.557 477.765 443.146C477.765 443.735 477.323 444.324 476.882 444.324C476.44 444.324 475.999 443.735 475.999 443.146Z" fill="white"/>
        <path opacity="0.7" d="M610.633 481.819C610.633 480.052 611.957 478.285 613.282 478.285C614.607 478.285 615.931 480.052 615.931 481.819C615.931 483.586 614.607 485.353 613.282 485.353C611.957 484.764 610.633 483.586 610.633 481.819Z" fill="white"/>
        <path opacity="0.7" d="M641.286 489.196C641.286 488.607 641.728 488.018 642.169 488.018C642.611 488.018 643.052 488.607 643.052 489.196C643.052 489.785 642.611 490.374 642.169 490.374C641.728 490.374 641.286 489.785 641.286 489.196Z" fill="white"/>
        <path opacity="0.7" d="M692.175 422.062C692.175 421.473 692.616 420.884 693.058 420.884C693.499 420.884 693.941 421.473 693.941 422.062C693.941 422.651 693.499 423.24 693.058 423.24C692.616 423.829 692.175 423.24 692.175 422.062Z" fill="white"/>
        <path opacity="0.7" d="M547.635 509.032C547.635 508.443 548.077 507.854 548.518 507.854C548.96 507.854 549.401 508.443 549.401 509.032C549.401 509.621 548.96 510.21 548.518 510.21C548.077 510.21 547.635 509.621 547.635 509.032Z" fill="white"/>
        <path opacity="0.7" d="M645.585 547.308C645.585 546.719 646.027 546.13 646.468 546.13C646.91 546.13 647.351 546.719 647.351 547.308C647.351 547.897 646.91 548.486 646.468 548.486C646.027 548.486 645.585 547.897 645.585 547.308Z" fill="white"/>
        <path opacity="0.7" d="M757.011 492.24C757.011 491.062 757.894 489.884 758.777 489.884C759.66 489.884 760.543 491.062 760.543 492.24C760.543 493.418 759.66 494.596 758.777 494.596C757.894 494.596 757.011 493.418 757.011 492.24Z" fill="white"/>
        <path opacity="0.7" d="M737.66 522.705C737.66 521.527 738.543 520.349 739.426 520.349C740.309 520.349 741.192 521.527 741.192 522.705C741.192 523.883 740.309 525.061 739.426 525.061C738.543 525.061 737.66 523.883 737.66 522.705Z" fill="white"/>
        <path opacity="0.7" d="M666.087 532.324C666.087 531.146 666.97 529.968 667.853 529.968C668.737 529.968 669.62 531.146 669.62 532.324C669.62 533.502 668.737 534.68 667.853 534.68C666.97 534.68 666.087 533.502 666.087 532.324Z" fill="white"/>
        <path opacity="0.7" d="M579.78 435.371C579.78 433.604 581.105 431.837 582.429 431.837C583.754 431.837 585.078 433.604 585.078 435.371C585.078 437.138 583.754 438.905 582.429 438.905C580.663 438.905 579.78 437.727 579.78 435.371Z" fill="white"/>
        <path opacity="0.7" d="M598.169 549.937C598.169 548.17 599.494 546.403 600.818 546.403C602.143 546.403 603.467 548.17 603.467 549.937C603.467 551.704 602.143 553.471 600.818 553.471C599.494 553.471 598.169 551.704 598.169 549.937Z" fill="white"/>
        <path opacity="0.7" d="M558.129 534.03C558.129 532.852 559.012 531.674 559.895 531.674C560.778 531.674 561.661 532.852 561.661 534.03C561.661 535.208 560.778 536.386 559.895 536.386C559.012 536.386 558.129 535.208 558.129 534.03Z" fill="white"/>
        <path opacity="0.7" d="M528.621 520.088C528.621 518.91 529.063 518.321 529.946 518.321C530.829 518.321 531.27 518.91 531.27 520.088C531.27 521.265 530.829 521.854 529.946 521.854C529.504 521.854 528.621 520.677 528.621 520.088Z" fill="white"/>
        <path opacity="0.7" d="M491.258 558.542C491.258 559.131 490.816 559.72 490.375 559.72C489.933 559.72 489.492 559.131 489.492 558.542C489.492 557.953 489.933 557.364 490.375 557.364C490.816 557.364 491.258 557.953 491.258 558.542Z" fill="white"/>
        <path opacity="0.7" d="M423.115 471.674C423.115 472.263 422.674 472.852 422.232 472.852C421.791 472.852 421.349 472.263 421.349 471.674C421.349 471.085 421.791 470.496 422.232 470.496C422.674 470.496 423.115 471.085 423.115 471.674Z" fill="white"/>
        <path opacity="0.7" d="M519.265 466.637C519.265 468.404 517.94 470.171 516.615 470.171C515.291 470.171 513.966 468.404 513.966 466.637C513.966 464.87 515.291 463.103 516.615 463.103C518.382 463.692 519.265 464.87 519.265 466.637Z" fill="white"/>
        <path opacity="0.7" d="M190.417 452.805C190.417 451.627 190.858 451.038 191.741 451.038C192.624 451.038 193.066 451.627 193.066 452.805C193.066 453.983 192.624 454.572 191.741 454.572C191.3 454.572 190.417 453.983 190.417 452.805Z" fill="white"/>
        <path opacity="0.7" d="M218.466 458.912C218.466 458.323 218.908 457.734 219.349 457.734C219.791 457.734 220.232 458.323 220.232 458.912C220.232 459.501 219.791 460.09 219.349 460.09C218.908 460.09 218.466 459.501 218.466 458.912Z" fill="white"/>
        <path opacity="0.7" d="M136.182 448.89C136.182 448.301 136.624 447.712 137.065 447.712C137.507 447.712 137.948 448.301 137.948 448.89C137.948 449.479 137.507 450.068 137.065 450.068C136.624 450.657 136.182 450.068 136.182 448.89Z" fill="white"/>
        <path opacity="0.7" d="M125.259 478.779C125.259 478.19 125.701 477.601 126.142 477.601C126.584 477.601 127.025 478.19 127.025 478.779C127.025 479.368 126.584 479.957 126.142 479.957C125.701 479.957 125.259 479.368 125.259 478.779Z" fill="white"/>
        <path opacity="0.7" d="M222.765 517.024C222.765 516.435 223.207 515.846 223.648 515.846C224.09 515.846 224.531 516.435 224.531 517.024C224.531 517.613 224.09 518.202 223.648 518.202C223.207 518.202 222.765 517.613 222.765 517.024Z" fill="white"/>
        <path opacity="0.7" d="M242.244 439.413C242.244 438.235 242.686 437.646 243.569 437.646C244.452 437.646 244.893 438.235 244.893 439.413C244.893 440.591 244.452 441.18 243.569 441.18C243.127 441.18 242.244 440.591 242.244 439.413Z" fill="white"/>
        <path opacity="0.7" d="M314.84 492.42C314.84 491.242 315.723 490.064 316.606 490.064C317.489 490.064 318.372 491.242 318.372 492.42C318.372 493.598 317.489 494.776 316.606 494.776C315.723 494.776 314.84 493.598 314.84 492.42Z" fill="white"/>
        <path opacity="0.7" d="M243.267 502.041C243.267 500.863 244.15 499.685 245.033 499.685C245.916 499.685 246.799 500.863 246.799 502.041C246.799 503.218 245.916 504.396 245.033 504.396C244.15 504.396 243.267 503.218 243.267 502.041Z" fill="white"/>
        <path opacity="0.7" d="M205.773 422.613C205.773 422.024 206.215 421.435 206.656 421.435C207.098 421.435 207.539 422.024 207.539 422.613C207.539 423.202 207.098 423.791 206.656 423.791C206.215 424.38 205.773 423.791 205.773 422.613Z" fill="white"/>
        <path opacity="0.7" d="M100.077 445.188C100.077 444.01 100.96 442.832 101.843 442.832C102.726 442.832 103.609 444.01 103.609 445.188C103.609 446.366 102.726 447.544 101.843 447.544C100.96 447.544 100.077 446.366 100.077 445.188Z" fill="white"/>
        <path opacity="0.7" d="M80.7263 475.653C80.7263 474.475 81.6094 473.297 82.4924 473.297C83.3755 473.297 84.2585 474.475 84.2585 475.653C84.2585 476.831 83.3755 478.009 82.4924 478.009C81.1679 478.009 80.7263 476.831 80.7263 475.653Z" fill="white"/>
        <path opacity="0.7" d="M9.15298 485.272C9.15298 484.094 10.036 482.916 10.919 482.916C11.8021 482.916 12.6851 484.094 12.6851 485.272C12.6851 486.45 11.8021 487.628 10.919 487.628C9.59447 487.628 9.15298 486.45 9.15298 485.272Z" fill="white"/>
        <path opacity="0.7" d="M43.6828 517.205C43.6828 516.027 44.1244 515.438 45.0074 515.438C45.8905 515.438 46.332 516.027 46.332 517.205C46.332 518.383 45.8905 518.972 45.0074 518.972C44.1244 518.972 43.6828 518.383 43.6828 517.205Z" fill="white"/>
        <g opacity="0.7">
            <path opacity="0.7" d="M258.149 471.114L257.707 462.279L251.084 461.69L257.707 461.101L258.149 452.267L258.59 461.101L265.213 461.69L258.59 462.279L258.149 471.114Z" fill="white"/>
            <path opacity="0.7" d="M255.498 465.813L257.706 461.691L255.498 457.568L258.147 461.102L261.238 457.568L258.589 461.691L261.238 465.224L258.147 462.28L255.498 465.813Z" fill="white"/>
        </g>
        <g opacity="0.7">
            <path opacity="0.7" d="M353.816 423.111L353.375 414.276L346.752 413.687L353.375 413.098L353.816 404.264L354.258 413.098L360.881 413.687L354.258 414.276L353.816 423.111Z" fill="white"/>
            <path opacity="0.7" d="M351.166 417.811L353.374 413.688L351.166 409.565L353.815 413.099L356.906 409.565L354.257 413.688L356.906 417.222L353.815 414.277L351.166 417.811Z" fill="white"/>
        </g>
        <g opacity="0.7">
            <path opacity="0.7" d="M304.339 878.319L303.456 870.073L297.275 868.895H303.456L304.339 859.472L304.781 868.895H311.404L304.781 870.073L304.339 878.319Z" fill="white"/>
            <path opacity="0.7" d="M301.247 873.019L303.455 869.485L301.247 865.362L303.896 868.307L307.428 865.362L304.779 868.896L307.428 873.019L304.338 870.074L301.247 873.019Z" fill="white"/>
        </g>
    </g>
</svg>
